<svg xmlns="http://www.w3.org/2000/svg" xmlns:xlink="http://www.w3.org/1999/xlink" width="500" zoomAndPan="magnify" viewBox="0 0 375 374.999991" height="500" preserveAspectRatio="xMidYMid meet" version="1.0"><defs><g/><clipPath id="5ca5346ebd"><path d="M 43.339844 111.679688 L 331.984375 111.679688 L 331.984375 228.597656 L 43.339844 228.597656 Z M 43.339844 111.679688 " clip-rule="nonzero"/></clipPath><clipPath id="87a204bd72"><path d="M 60.589844 111.679688 L 314.410156 111.679688 C 318.984375 111.679688 323.371094 113.496094 326.609375 116.730469 C 329.84375 119.964844 331.660156 124.355469 331.660156 128.929688 L 331.660156 211.347656 C 331.660156 215.921875 329.84375 220.3125 326.609375 223.546875 C 323.371094 226.78125 318.984375 228.597656 314.410156 228.597656 L 60.589844 228.597656 C 56.015625 228.597656 51.628906 226.78125 48.390625 223.546875 C 45.15625 220.3125 43.339844 215.921875 43.339844 211.347656 L 43.339844 128.929688 C 43.339844 124.355469 45.15625 119.964844 48.390625 116.730469 C 51.628906 113.496094 56.015625 111.679688 60.589844 111.679688 Z M 60.589844 111.679688 " clip-rule="nonzero"/></clipPath><clipPath id="36963d0d69"><path d="M 0.339844 0.679688 L 288.679688 0.679688 L 288.679688 117.597656 L 0.339844 117.597656 Z M 0.339844 0.679688 " clip-rule="nonzero"/></clipPath><clipPath id="4375ed670f"><path d="M 17.589844 0.679688 L 271.410156 0.679688 C 275.984375 0.679688 280.371094 2.496094 283.609375 5.730469 C 286.84375 8.964844 288.660156 13.355469 288.660156 17.929688 L 288.660156 100.347656 C 288.660156 104.921875 286.84375 109.3125 283.609375 112.546875 C 280.371094 115.78125 275.984375 117.597656 271.410156 117.597656 L 17.589844 117.597656 C 13.015625 117.597656 8.628906 115.78125 5.390625 112.546875 C 2.15625 109.3125 0.339844 104.921875 0.339844 100.347656 L 0.339844 17.929688 C 0.339844 13.355469 2.15625 8.964844 5.390625 5.730469 C 8.628906 2.496094 13.015625 0.679688 17.589844 0.679688 Z M 17.589844 0.679688 " clip-rule="nonzero"/></clipPath><clipPath id="1fa8e5c9bf"><rect x="0" width="289" y="0" height="118"/></clipPath><clipPath id="b685453abc"><path d="M 2.03125 0.714844 L 21.519531 0.714844 L 21.519531 14 L 2.03125 14 Z M 2.03125 0.714844 " clip-rule="nonzero"/></clipPath><clipPath id="acdfe84e99"><rect x="0" width="258" y="0" height="58"/></clipPath></defs><rect x="-37.5" width="450" fill="#ffffff" y="-37.499999" height="449.999989" fill-opacity="1"/><rect x="-37.5" width="450" fill="#ffffff" y="-37.499999" height="449.999989" fill-opacity="1"/><g clip-path="url(#5ca5346ebd)"><g clip-path="url(#87a204bd72)"><g transform="matrix(1, 0, 0, 1, 43, 111)"><g clip-path="url(#1fa8e5c9bf)"><g clip-path="url(#36963d0d69)"><g clip-path="url(#4375ed670f)"><path fill="#ffffff" d="M 0.339844 0.679688 L 288.527344 0.679688 L 288.527344 117.597656 L 0.339844 117.597656 Z M 0.339844 0.679688 " fill-opacity="1" fill-rule="nonzero"/></g></g></g></g></g></g><g transform="matrix(1, 0, 0, 1, 53, 138)"><g clip-path="url(#acdfe84e99)"><g fill="#272727" fill-opacity="1"><g transform="translate(5.494786, 39.351676)"><g><path d="M 21.671875 -28.34375 C 23.910156 -28.34375 25 -27.179688 24.9375 -24.859375 C 24.914062 -17.742188 24.914062 -10.613281 24.9375 -3.46875 C 24.96875 -2.351562 24.679688 -1.492188 24.078125 -0.890625 C 23.484375 -0.296875 22.628906 0 21.515625 0 L 20.890625 0 C 18.984375 0 17.625 -0.859375 16.8125 -2.578125 L 8.921875 -18.96875 L 8.828125 -18.96875 C 8.890625 -16.082031 8.972656 -13.410156 9.078125 -10.953125 C 9.179688 -8.503906 9.316406 -6.050781 9.484375 -3.59375 C 9.617188 -1.195312 8.582031 0 6.375 0 C 5.3125 0 4.492188 -0.296875 3.921875 -0.890625 C 3.347656 -1.492188 3.078125 -2.351562 3.109375 -3.46875 C 3.140625 -10.613281 3.140625 -17.742188 3.109375 -24.859375 C 3.078125 -25.972656 3.359375 -26.832031 3.953125 -27.4375 C 4.554688 -28.039062 5.421875 -28.34375 6.546875 -28.34375 L 8.625 -28.34375 C 10.53125 -28.34375 11.894531 -27.484375 12.71875 -25.765625 L 19.09375 -12.46875 L 19.171875 -12.46875 C 19.117188 -14.707031 19.035156 -16.832031 18.921875 -18.84375 C 18.816406 -20.863281 18.695312 -22.828125 18.5625 -24.734375 C 18.394531 -27.140625 19.429688 -28.34375 21.671875 -28.34375 Z M 21.671875 -28.34375 "/></g></g></g><g fill="#272727" fill-opacity="1"><g transform="translate(32.889492, 39.351676)"><g><path d="M 12.390625 0.046875 L 6.546875 0 C 4.222656 0 3.0625 -1.128906 3.0625 -3.390625 C 3.0625 -4.316406 3.066406 -5.375 3.078125 -6.5625 C 3.097656 -7.75 3.113281 -9.160156 3.125 -10.796875 C 3.144531 -12.429688 3.15625 -14.378906 3.15625 -16.640625 C 3.15625 -18.898438 3.15625 -21.585938 3.15625 -24.703125 C 3.15625 -27.128906 4.3125 -28.34375 6.625 -28.34375 L 12.390625 -28.34375 C 15.492188 -28.34375 18.003906 -27.882812 19.921875 -26.96875 C 21.847656 -26.050781 23.257812 -24.582031 24.15625 -22.5625 C 25.0625 -20.550781 25.515625 -17.882812 25.515625 -14.5625 C 25.515625 -9.59375 24.484375 -5.921875 22.421875 -3.546875 C 20.367188 -1.179688 17.023438 0.015625 12.390625 0.046875 Z M 10.75 -5.640625 L 12.21875 -5.640625 C 14.351562 -5.640625 15.84375 -6.378906 16.6875 -7.859375 C 17.53125 -9.347656 17.953125 -11.457031 17.953125 -14.1875 C 17.953125 -16.289062 17.78125 -17.960938 17.4375 -19.203125 C 17.09375 -20.441406 16.503906 -21.332031 15.671875 -21.875 C 14.847656 -22.414062 13.695312 -22.6875 12.21875 -22.6875 L 10.75 -22.6875 C 10.75 -21.757812 10.742188 -20.757812 10.734375 -19.6875 C 10.722656 -18.613281 10.71875 -17.316406 10.71875 -15.796875 C 10.71875 -14.285156 10.71875 -12.359375 10.71875 -10.015625 C 10.71875 -9.285156 10.71875 -8.550781 10.71875 -7.8125 C 10.71875 -7.070312 10.726562 -6.347656 10.75 -5.640625 Z M 10.75 -5.640625 "/></g></g></g><g fill="#272727" fill-opacity="1"><g transform="translate(59.793549, 39.351676)"><g><path d="M 13.828125 0.40625 C 6.515625 0.40625 2.859375 -2.957031 2.859375 -9.6875 C 2.859375 -11.707031 2.863281 -13.734375 2.875 -15.765625 C 2.894531 -17.796875 2.90625 -19.804688 2.90625 -21.796875 C 2.90625 -22.316406 2.90625 -22.828125 2.90625 -23.328125 C 2.90625 -23.828125 2.90625 -24.335938 2.90625 -24.859375 C 2.90625 -27.179688 4.050781 -28.34375 6.34375 -28.34375 L 7.078125 -28.34375 C 8.191406 -28.34375 9.046875 -28.039062 9.640625 -27.4375 C 10.242188 -26.832031 10.535156 -25.972656 10.515625 -24.859375 C 10.515625 -23.847656 10.515625 -22.851562 10.515625 -21.875 C 10.515625 -20.894531 10.515625 -19.898438 10.515625 -18.890625 C 10.515625 -17.390625 10.515625 -15.894531 10.515625 -14.40625 C 10.515625 -12.925781 10.523438 -11.4375 10.546875 -9.9375 C 10.578125 -8.164062 10.835938 -6.914062 11.328125 -6.1875 C 11.816406 -5.46875 12.648438 -5.109375 13.828125 -5.109375 C 15.179688 -5.109375 16.125 -5.46875 16.65625 -6.1875 C 17.1875 -6.914062 17.453125 -8.164062 17.453125 -9.9375 C 17.484375 -11.4375 17.503906 -12.925781 17.515625 -14.40625 C 17.535156 -15.894531 17.546875 -17.390625 17.546875 -18.890625 C 17.546875 -19.867188 17.546875 -20.851562 17.546875 -21.84375 C 17.546875 -22.84375 17.53125 -23.835938 17.5 -24.828125 C 17.46875 -25.960938 17.757812 -26.832031 18.375 -27.4375 C 18.988281 -28.039062 19.859375 -28.34375 20.984375 -28.34375 L 21.015625 -28.34375 C 22.128906 -28.34375 22.988281 -28.039062 23.59375 -27.4375 C 24.195312 -26.832031 24.484375 -25.972656 24.453125 -24.859375 C 24.453125 -23.847656 24.453125 -22.851562 24.453125 -21.875 C 24.453125 -20.894531 24.453125 -19.898438 24.453125 -18.890625 C 24.453125 -17.367188 24.457031 -15.835938 24.46875 -14.296875 C 24.488281 -12.753906 24.5 -11.21875 24.5 -9.6875 C 24.5 -2.957031 20.941406 0.40625 13.828125 0.40625 Z M 13.828125 0.40625 "/></g></g></g><g fill="#ffc60b" fill-opacity="1"><g transform="translate(86.497431, 39.351676)"><g><path d="M 6.546875 0 C 4.222656 0 3.0625 -1.15625 3.0625 -3.46875 C 3.09375 -5.25 3.113281 -7.03125 3.125 -8.8125 C 3.144531 -10.59375 3.15625 -12.382812 3.15625 -14.1875 C 3.15625 -15.957031 3.144531 -17.734375 3.125 -19.515625 C 3.113281 -21.304688 3.09375 -23.085938 3.0625 -24.859375 C 3.0625 -27.179688 4.222656 -28.34375 6.546875 -28.34375 L 13.578125 -28.34375 C 17.722656 -28.34375 20.734375 -27.640625 22.609375 -26.234375 C 24.492188 -24.828125 25.4375 -22.554688 25.4375 -19.421875 C 25.4375 -17.179688 24.894531 -15.242188 23.8125 -13.609375 C 22.738281 -11.972656 21.21875 -10.710938 19.25 -9.828125 C 17.289062 -8.941406 14.945312 -8.5 12.21875 -8.5 L 10.71875 -8.5 C 10.71875 -7.65625 10.71875 -6.816406 10.71875 -5.984375 C 10.71875 -5.160156 10.726562 -4.320312 10.75 -3.46875 C 10.75 -1.15625 9.59375 0 7.28125 0 Z M 10.71875 -14.3125 L 12.109375 -14.3125 C 14.035156 -14.3125 15.421875 -14.6875 16.265625 -15.4375 C 17.117188 -16.1875 17.546875 -17.40625 17.546875 -19.09375 C 17.546875 -20.375 17.160156 -21.289062 16.390625 -21.84375 C 15.628906 -22.40625 14.40625 -22.6875 12.71875 -22.6875 L 10.75 -22.6875 C 10.726562 -21.601562 10.71875 -20.441406 10.71875 -19.203125 C 10.71875 -17.960938 10.71875 -16.332031 10.71875 -14.3125 Z M 10.71875 -14.3125 "/></g></g></g><g fill="#ffc60b" fill-opacity="1"><g transform="translate(112.910827, 39.351676)"><g><path d="M 6.546875 0 C 4.222656 0 3.0625 -1.15625 3.0625 -3.46875 C 3.09375 -5.25 3.113281 -7.03125 3.125 -8.8125 C 3.144531 -10.59375 3.15625 -12.382812 3.15625 -14.1875 C 3.15625 -15.957031 3.144531 -17.734375 3.125 -19.515625 C 3.113281 -21.304688 3.09375 -23.085938 3.0625 -24.859375 C 3.0625 -27.179688 4.222656 -28.34375 6.546875 -28.34375 L 13.578125 -28.34375 C 17.722656 -28.34375 20.734375 -27.671875 22.609375 -26.328125 C 24.492188 -24.992188 25.4375 -22.828125 25.4375 -19.828125 C 25.4375 -18.003906 24.9375 -16.4375 23.9375 -15.125 C 22.945312 -13.820312 21.578125 -12.953125 19.828125 -12.515625 L 19.828125 -12.34375 C 21.191406 -11.9375 22.3125 -11.066406 23.1875 -9.734375 C 24.0625 -8.398438 24.785156 -6.460938 25.359375 -3.921875 C 25.628906 -2.691406 25.46875 -1.726562 24.875 -1.03125 C 24.289062 -0.34375 23.398438 0 22.203125 0 L 20.890625 0 C 18.765625 0 17.539062 -1.101562 17.21875 -3.3125 C 17.019531 -4.625 16.742188 -5.796875 16.390625 -6.828125 C 16.035156 -7.859375 15.53125 -8.679688 14.875 -9.296875 C 14.226562 -9.910156 13.34375 -10.21875 12.21875 -10.21875 L 10.71875 -10.21875 C 10.71875 -9.101562 10.71875 -7.976562 10.71875 -6.84375 C 10.71875 -5.71875 10.726562 -4.59375 10.75 -3.46875 C 10.75 -1.15625 9.59375 0 7.28125 0 Z M 10.71875 -14.71875 L 12.109375 -14.71875 C 14.035156 -14.71875 15.421875 -15.054688 16.265625 -15.734375 C 17.117188 -16.421875 17.546875 -17.539062 17.546875 -19.09375 C 17.546875 -20.375 17.160156 -21.289062 16.390625 -21.84375 C 15.628906 -22.40625 14.40625 -22.6875 12.71875 -22.6875 L 10.75 -22.6875 C 10.726562 -21.6875 10.71875 -20.59375 10.71875 -19.40625 C 10.71875 -18.21875 10.71875 -16.65625 10.71875 -14.71875 Z M 10.71875 -14.71875 "/></g></g></g><g fill="#ffc60b" fill-opacity="1"><g transform="translate(139.814861, 39.351676)"><g><path d="M 14.0625 0.40625 C 6.050781 0.40625 2.046875 -4.457031 2.046875 -14.1875 C 2.046875 -23.894531 6.050781 -28.75 14.0625 -28.75 C 22.050781 -28.75 26.046875 -23.894531 26.046875 -14.1875 C 26.046875 -4.457031 22.050781 0.40625 14.0625 0.40625 Z M 14.0625 -5.109375 C 15.15625 -5.109375 16 -5.378906 16.59375 -5.921875 C 17.195312 -6.472656 17.617188 -7.410156 17.859375 -8.734375 C 18.109375 -10.054688 18.234375 -11.875 18.234375 -14.1875 C 18.234375 -16.507812 18.109375 -18.320312 17.859375 -19.625 C 17.617188 -20.9375 17.195312 -21.863281 16.59375 -22.40625 C 16 -22.945312 15.15625 -23.21875 14.0625 -23.21875 C 13 -23.21875 12.160156 -22.945312 11.546875 -22.40625 C 10.929688 -21.863281 10.492188 -20.9375 10.234375 -19.625 C 9.984375 -18.320312 9.859375 -16.507812 9.859375 -14.1875 C 9.859375 -11.875 9.984375 -10.054688 10.234375 -8.734375 C 10.492188 -7.410156 10.929688 -6.472656 11.546875 -5.921875 C 12.160156 -5.378906 13 -5.109375 14.0625 -5.109375 Z M 14.0625 -5.109375 "/></g></g></g><g fill="#ffc60b" fill-opacity="1"><g transform="translate(167.127786, 39.351676)"><g><path d="M 6.953125 0.8125 C 6.429688 0.8125 5.90625 0.785156 5.375 0.734375 C 4.84375 0.679688 4.304688 0.597656 3.765625 0.484375 C 2.753906 0.265625 2.023438 -0.179688 1.578125 -0.859375 C 1.128906 -1.535156 0.90625 -2.378906 0.90625 -3.390625 C 0.90625 -5.847656 1.597656 -6.867188 2.984375 -6.453125 C 3.640625 -6.210938 4.375 -6.09375 5.1875 -6.09375 C 6.394531 -6.09375 7.28125 -6.410156 7.84375 -7.046875 C 8.414062 -7.691406 8.71875 -8.722656 8.75 -10.140625 C 8.78125 -11.585938 8.796875 -13.046875 8.796875 -14.515625 C 8.796875 -15.984375 8.796875 -17.441406 8.796875 -18.890625 C 8.796875 -19.898438 8.796875 -20.894531 8.796875 -21.875 C 8.796875 -22.851562 8.796875 -23.847656 8.796875 -24.859375 C 8.765625 -25.972656 9.046875 -26.832031 9.640625 -27.4375 C 10.242188 -28.039062 11.101562 -28.34375 12.21875 -28.34375 L 12.96875 -28.34375 C 14.082031 -28.34375 14.9375 -28.039062 15.53125 -27.4375 C 16.132812 -26.832031 16.421875 -25.972656 16.390625 -24.859375 C 16.390625 -22.347656 16.394531 -19.828125 16.40625 -17.296875 C 16.425781 -14.765625 16.4375 -12.226562 16.4375 -9.6875 C 16.4375 -6.175781 15.582031 -3.546875 13.875 -1.796875 C 12.175781 -0.0546875 9.867188 0.8125 6.953125 0.8125 Z M 6.953125 0.8125 "/></g></g></g><g fill="#ffc60b" fill-opacity="1"><g transform="translate(185.772505, 39.351676)"><g><path d="M 10.71875 -5.4375 C 11.914062 -5.46875 13.113281 -5.484375 14.3125 -5.484375 C 15.507812 -5.484375 16.679688 -5.492188 17.828125 -5.515625 C 20.140625 -5.515625 21.296875 -4.601562 21.296875 -2.78125 C 21.296875 -0.925781 20.140625 0 17.828125 0 L 6.546875 0 C 5.421875 0 4.554688 -0.296875 3.953125 -0.890625 C 3.359375 -1.492188 3.078125 -2.351562 3.109375 -3.46875 C 3.109375 -5.269531 3.113281 -7.0625 3.125 -8.84375 C 3.144531 -10.632812 3.15625 -12.414062 3.15625 -14.1875 C 3.15625 -15.957031 3.144531 -17.734375 3.125 -19.515625 C 3.113281 -21.304688 3.109375 -23.085938 3.109375 -24.859375 C 3.078125 -25.972656 3.359375 -26.832031 3.953125 -27.4375 C 4.554688 -28.039062 5.421875 -28.34375 6.546875 -28.34375 L 17.421875 -28.34375 C 19.734375 -28.34375 20.890625 -27.425781 20.890625 -25.59375 C 20.890625 -23.738281 19.734375 -22.8125 17.421875 -22.8125 C 16.328125 -22.84375 15.210938 -22.859375 14.078125 -22.859375 C 12.953125 -22.859375 11.832031 -22.875 10.71875 -22.90625 L 10.71875 -16.640625 C 11.582031 -16.671875 12.4375 -16.6875 13.28125 -16.6875 C 14.132812 -16.6875 14.96875 -16.695312 15.78125 -16.71875 C 18.101562 -16.71875 19.265625 -15.804688 19.265625 -13.984375 C 19.265625 -12.128906 18.101562 -11.203125 15.78125 -11.203125 C 14.96875 -11.234375 14.132812 -11.25 13.28125 -11.25 C 12.4375 -11.25 11.582031 -11.257812 10.71875 -11.28125 Z M 10.71875 -5.4375 "/></g></g></g><g fill="#ffc60b" fill-opacity="1"><g transform="translate(208.219782, 39.351676)"><g><path d="M 13.78125 0.40625 C 9.71875 0.40625 6.738281 -0.8125 4.84375 -3.25 C 2.945312 -5.6875 2 -9.332031 2 -14.1875 C 2 -23.894531 6.019531 -28.75 14.0625 -28.75 C 17.09375 -28.75 19.515625 -28.007812 21.328125 -26.53125 C 23.140625 -25.0625 24.164062 -22.9375 24.40625 -20.15625 C 24.519531 -19.007812 24.242188 -18.144531 23.578125 -17.5625 C 22.910156 -16.976562 22.015625 -16.6875 20.890625 -16.6875 L 20.65625 -16.6875 C 19.53125 -16.6875 18.710938 -16.992188 18.203125 -17.609375 C 17.703125 -18.222656 17.375 -19.113281 17.21875 -20.28125 C 17.050781 -21.34375 16.703125 -22.097656 16.171875 -22.546875 C 15.640625 -22.992188 14.859375 -23.21875 13.828125 -23.21875 C 12.398438 -23.21875 11.378906 -22.539062 10.765625 -21.1875 C 10.160156 -19.84375 9.859375 -17.507812 9.859375 -14.1875 C 9.859375 -11.789062 10.023438 -9.941406 10.359375 -8.640625 C 10.703125 -7.347656 11.171875 -6.457031 11.765625 -5.96875 C 12.367188 -5.476562 13.054688 -5.234375 13.828125 -5.234375 C 14.691406 -5.234375 15.382812 -5.382812 15.90625 -5.6875 C 16.425781 -5.988281 16.804688 -6.503906 17.046875 -7.234375 C 17.398438 -8.328125 17.835938 -9.148438 18.359375 -9.703125 C 18.878906 -10.265625 19.671875 -10.546875 20.734375 -10.546875 L 20.765625 -10.546875 C 21.890625 -10.546875 22.785156 -10.234375 23.453125 -9.609375 C 24.117188 -8.984375 24.34375 -8.070312 24.125 -6.875 C 23.71875 -4.394531 22.617188 -2.5625 20.828125 -1.375 C 19.046875 -0.1875 16.695312 0.40625 13.78125 0.40625 Z M 13.78125 0.40625 "/></g></g></g><g fill="#ffc60b" fill-opacity="1"><g transform="translate(233.529208, 39.351676)"><g><path d="M 22.9375 -25.59375 C 22.9375 -24.726562 22.632812 -24.046875 22.03125 -23.546875 C 21.4375 -23.054688 20.566406 -22.8125 19.421875 -22.8125 C 18.765625 -22.84375 18.132812 -22.859375 17.53125 -22.859375 C 16.9375 -22.859375 16.328125 -22.859375 15.703125 -22.859375 L 15.703125 -14.1875 C 15.703125 -12.382812 15.703125 -10.597656 15.703125 -8.828125 C 15.703125 -7.054688 15.703125 -5.269531 15.703125 -3.46875 C 15.734375 -2.351562 15.445312 -1.492188 14.84375 -0.890625 C 14.238281 -0.296875 13.378906 0 12.265625 0 L 11.53125 0 C 9.21875 0 8.0625 -1.15625 8.0625 -3.46875 C 8.082031 -5.25 8.097656 -7.03125 8.109375 -8.8125 C 8.128906 -10.59375 8.140625 -12.382812 8.140625 -14.1875 C 8.140625 -15.632812 8.128906 -17.085938 8.109375 -18.546875 C 8.097656 -20.003906 8.09375 -21.441406 8.09375 -22.859375 C 7.519531 -22.859375 6.941406 -22.859375 6.359375 -22.859375 C 5.773438 -22.859375 5.164062 -22.84375 4.53125 -22.8125 C 3.394531 -22.8125 2.523438 -23.054688 1.921875 -23.546875 C 1.316406 -24.046875 1.015625 -24.726562 1.015625 -25.59375 C 1.015625 -27.425781 2.175781 -28.34375 4.5 -28.34375 L 19.46875 -28.34375 C 21.78125 -28.34375 22.9375 -27.425781 22.9375 -25.59375 Z M 22.9375 -25.59375 "/></g></g></g><g clip-path="url(#b685453abc)"><path fill="#ffc60b" d="M 19.585938 5.53125 C 20.269531 6.214844 20.867188 5.984375 20.917969 5.015625 L 21.09375 1.734375 C 21.117188 1.25 20.746094 0.882812 20.261719 0.90625 L 16.980469 1.082031 C 16.007812 1.125 15.78125 1.730469 16.46875 2.414062 L 17.402344 3.347656 L 12.425781 8.328125 L 9.9375 5.839844 C 9.59375 5.496094 9.035156 5.496094 8.691406 5.839844 L 2.15625 12.375 C 1.988281 12.539062 1.984375 12.820312 2.15625 12.996094 L 2.777344 13.617188 C 2.957031 13.796875 3.230469 13.785156 3.40625 13.613281 L 9.3125 7.703125 L 11.800781 10.195312 C 12.144531 10.539062 12.703125 10.539062 13.042969 10.195312 L 18.644531 4.597656 Z M 19.585938 5.53125 " fill-opacity="1" fill-rule="evenodd"/></g><g fill="#0d0d0d" fill-opacity="1"><g transform="translate(90.116066, 53.627113)"><g><path d="M 1.953125 -6.75 L 1.953125 0 L 1.015625 0 L 1.015625 -9.75 L 6.15625 -2.421875 L 6.15625 -9.171875 L 7.109375 -9.171875 L 7.109375 0.5625 Z M 1.953125 -6.75 "/></g></g></g><g fill="#0d0d0d" fill-opacity="1"><g transform="translate(98.224481, 53.627113)"><g><path d="M 5.734375 -2.96875 C 5.734375 -3.539062 5.535156 -4.046875 5.140625 -4.484375 C 4.734375 -4.910156 4.234375 -5.125 3.640625 -5.125 C 3.046875 -5.125 2.550781 -4.910156 2.15625 -4.484375 C 1.75 -4.046875 1.546875 -3.539062 1.546875 -2.96875 C 1.546875 -2.394531 1.75 -1.890625 2.15625 -1.453125 C 2.550781 -1.023438 3.046875 -0.8125 3.640625 -0.8125 C 4.234375 -0.8125 4.734375 -1.023438 5.140625 -1.453125 C 5.535156 -1.890625 5.734375 -2.394531 5.734375 -2.96875 Z M 6.671875 0 L 5.734375 0 L 5.734375 -1.015625 C 5.679688 -0.941406 5.625 -0.875 5.5625 -0.8125 C 5 -0.175781 4.3125 0.140625 3.5 0.140625 C 2.675781 0.140625 1.984375 -0.175781 1.421875 -0.8125 C 0.878906 -1.414062 0.609375 -2.132812 0.609375 -2.96875 C 0.609375 -3.789062 0.878906 -4.507812 1.421875 -5.125 C 1.984375 -5.75 2.675781 -6.0625 3.5 -6.0625 C 4.3125 -6.0625 5 -5.75 5.5625 -5.125 C 5.625 -5.0625 5.679688 -4.992188 5.734375 -4.921875 L 5.734375 -5.9375 L 6.671875 -5.9375 Z M 6.671875 0 "/></g></g></g><g fill="#0d0d0d" fill-opacity="1"><g transform="translate(105.901884, 53.627113)"><g><path d="M 2.875 0.5625 L 0.140625 -5.9375 L 1.15625 -5.9375 L 2.875 -1.53125 L 4.578125 -5.9375 L 5.59375 -5.9375 Z M 2.875 0.5625 "/></g></g></g><g fill="#0d0d0d" fill-opacity="1"><g transform="translate(111.626263, 53.627113)"><g><path d="M 1.96875 -7.984375 C 2.082031 -7.867188 2.140625 -7.726562 2.140625 -7.5625 C 2.140625 -7.394531 2.082031 -7.253906 1.96875 -7.140625 C 1.851562 -7.015625 1.710938 -6.953125 1.546875 -6.953125 C 1.378906 -6.953125 1.238281 -7.015625 1.125 -7.140625 C 1 -7.253906 0.9375 -7.394531 0.9375 -7.5625 C 0.9375 -7.726562 1 -7.867188 1.125 -7.984375 C 1.238281 -8.097656 1.378906 -8.15625 1.546875 -8.15625 C 1.710938 -8.15625 1.851562 -8.097656 1.96875 -7.984375 Z M 2.015625 0 L 1.078125 0 L 1.078125 -5.9375 L 2.015625 -5.9375 Z M 2.015625 0 "/></g></g></g><g fill="#0d0d0d" fill-opacity="1"><g transform="translate(114.710696, 53.627113)"><g><path d="M 5.8125 -2.96875 C 5.8125 -3.539062 5.613281 -4.046875 5.21875 -4.484375 C 4.8125 -4.910156 4.3125 -5.125 3.71875 -5.125 C 3.144531 -5.125 2.648438 -4.910156 2.234375 -4.484375 C 1.828125 -4.054688 1.625 -3.550781 1.625 -2.96875 C 1.625 -2.382812 1.828125 -1.878906 2.234375 -1.453125 C 2.648438 -1.023438 3.144531 -0.8125 3.71875 -0.8125 C 4.3125 -0.8125 4.8125 -1.023438 5.21875 -1.453125 C 5.613281 -1.890625 5.8125 -2.394531 5.8125 -2.96875 Z M 1.609375 0.8125 C 1.691406 1.175781 1.882812 1.503906 2.1875 1.796875 C 2.601562 2.210938 3.101562 2.421875 3.6875 2.421875 C 4.269531 2.421875 4.769531 2.210938 5.1875 1.796875 C 5.601562 1.378906 5.8125 0.878906 5.8125 0.296875 L 5.8125 -1 C 5.769531 -0.9375 5.71875 -0.875 5.65625 -0.8125 C 5.09375 -0.175781 4.40625 0.140625 3.59375 0.140625 C 2.757812 0.140625 2.066406 -0.175781 1.515625 -0.8125 C 0.960938 -1.414062 0.6875 -2.132812 0.6875 -2.96875 C 0.6875 -3.789062 0.960938 -4.507812 1.515625 -5.125 C 2.066406 -5.75 2.757812 -6.0625 3.59375 -6.0625 C 4.382812 -6.0625 5.070312 -5.75 5.65625 -5.125 C 5.71875 -5.0625 5.769531 -5 5.8125 -4.9375 L 5.8125 -5.9375 L 6.75 -5.9375 L 6.75 0.296875 C 6.75 1.140625 6.453125 1.863281 5.859375 2.46875 C 5.253906 3.070312 4.53125 3.375 3.6875 3.375 C 2.832031 3.375 2.109375 3.070312 1.515625 2.46875 C 1.035156 1.988281 0.742188 1.4375 0.640625 0.8125 Z M 1.609375 0.8125 "/></g></g></g><g fill="#0d0d0d" fill-opacity="1"><g transform="translate(122.468918, 53.627113)"><g><path d="M 5.734375 -2.96875 C 5.734375 -3.539062 5.535156 -4.046875 5.140625 -4.484375 C 4.734375 -4.910156 4.234375 -5.125 3.640625 -5.125 C 3.046875 -5.125 2.550781 -4.910156 2.15625 -4.484375 C 1.75 -4.046875 1.546875 -3.539062 1.546875 -2.96875 C 1.546875 -2.394531 1.75 -1.890625 2.15625 -1.453125 C 2.550781 -1.023438 3.046875 -0.8125 3.640625 -0.8125 C 4.234375 -0.8125 4.734375 -1.023438 5.140625 -1.453125 C 5.535156 -1.890625 5.734375 -2.394531 5.734375 -2.96875 Z M 6.671875 0 L 5.734375 0 L 5.734375 -1.015625 C 5.679688 -0.941406 5.625 -0.875 5.5625 -0.8125 C 5 -0.175781 4.3125 0.140625 3.5 0.140625 C 2.675781 0.140625 1.984375 -0.175781 1.421875 -0.8125 C 0.878906 -1.414062 0.609375 -2.132812 0.609375 -2.96875 C 0.609375 -3.789062 0.878906 -4.507812 1.421875 -5.125 C 1.984375 -5.75 2.675781 -6.0625 3.5 -6.0625 C 4.3125 -6.0625 5 -5.75 5.5625 -5.125 C 5.625 -5.0625 5.679688 -4.992188 5.734375 -4.921875 L 5.734375 -5.9375 L 6.671875 -5.9375 Z M 6.671875 0 "/></g></g></g><g fill="#0d0d0d" fill-opacity="1"><g transform="translate(130.146321, 53.627113)"><g><path d="M 0.265625 -5.0625 L 0.265625 -5.9375 L 1.75 -5.9375 L 1.75 -8.234375 L 2.703125 -8.234375 L 2.703125 -5.9375 L 4.171875 -5.9375 L 4.171875 -5.0625 L 2.703125 -5.0625 L 2.703125 0 L 1.75 0 L 1.75 -5.0625 Z M 0.265625 -5.0625 "/></g></g></g><g fill="#0d0d0d" fill-opacity="1"><g transform="translate(134.577663, 53.627113)"><g><path d="M 6.8125 -3.09375 L 6.8125 -2.609375 L 1.59375 -2.609375 C 1.675781 -2.085938 1.921875 -1.664062 2.328125 -1.34375 C 2.742188 -1.007812 3.203125 -0.84375 3.703125 -0.84375 C 4.046875 -0.84375 4.375 -0.925781 4.6875 -1.09375 C 5 -1.25 5.257812 -1.460938 5.46875 -1.734375 L 6.546875 -1.734375 C 6.285156 -1.171875 5.90625 -0.726562 5.40625 -0.40625 C 4.894531 -0.0703125 4.378906 0.09375 3.859375 0.09375 C 3.328125 0.09375 2.878906 0.015625 2.515625 -0.140625 C 2.128906 -0.304688 1.800781 -0.53125 1.53125 -0.8125 C 0.914062 -1.40625 0.609375 -2.132812 0.609375 -3 C 0.609375 -3.851562 0.914062 -4.582031 1.53125 -5.1875 C 2.125 -5.789062 2.847656 -6.09375 3.703125 -6.09375 C 4.535156 -6.09375 5.257812 -5.800781 5.875 -5.21875 C 6.5 -4.625 6.8125 -3.914062 6.8125 -3.09375 Z M 5.8125 -3.40625 C 5.707031 -3.914062 5.457031 -4.335938 5.0625 -4.671875 C 4.664062 -4.992188 4.210938 -5.15625 3.703125 -5.15625 C 2.929688 -5.15625 2.328125 -4.804688 1.890625 -4.109375 C 1.753906 -3.898438 1.660156 -3.664062 1.609375 -3.40625 Z M 5.8125 -3.40625 "/></g></g></g><g fill="#0d0d0d" fill-opacity="1"><g transform="translate(141.918347, 53.627113)"><g><path d="M 1.796875 0.140625 C 1.585938 0.140625 1.40625 0.0625 1.25 -0.09375 C 1.09375 -0.238281 1.015625 -0.414062 1.015625 -0.625 C 1.015625 -0.832031 1.085938 -1.007812 1.234375 -1.15625 C 1.390625 -1.3125 1.578125 -1.390625 1.796875 -1.390625 C 2.003906 -1.390625 2.191406 -1.316406 2.359375 -1.171875 C 2.515625 -1.015625 2.59375 -0.835938 2.59375 -0.640625 C 2.59375 -0.421875 2.507812 -0.238281 2.34375 -0.09375 C 2.1875 0.0625 2.003906 0.140625 1.796875 0.140625 Z M 1.796875 0.140625 "/></g></g></g><g fill="#0d0d0d" fill-opacity="1"><g transform="translate(145.514612, 53.627113)"><g/></g></g><g fill="#0d0d0d" fill-opacity="1"><g transform="translate(149.151275, 53.627113)"><g><path d="M 8.125 -4.578125 C 8.125 -3.921875 8.003906 -3.3125 7.765625 -2.75 C 7.515625 -2.1875 7.175781 -1.703125 6.75 -1.296875 C 6.332031 -0.890625 5.835938 -0.570312 5.265625 -0.34375 C 4.679688 -0.113281 4.0625 0 3.40625 0 L 1.015625 0 L 1.015625 -9.171875 L 3.40625 -9.171875 C 4.0625 -9.171875 4.679688 -9.054688 5.265625 -8.828125 C 5.835938 -8.597656 6.332031 -8.28125 6.75 -7.875 C 7.175781 -7.46875 7.515625 -6.988281 7.765625 -6.4375 C 8.003906 -5.863281 8.125 -5.242188 8.125 -4.578125 Z M 7.21875 -4.578125 C 7.21875 -5.628906 6.847656 -6.503906 6.109375 -7.203125 C 5.390625 -7.878906 4.5 -8.21875 3.4375 -8.21875 L 1.953125 -8.21875 L 1.953125 -0.9375 L 3.4375 -0.9375 C 4.5 -0.9375 5.390625 -1.28125 6.109375 -1.96875 C 6.847656 -2.664062 7.21875 -3.535156 7.21875 -4.578125 Z M 7.21875 -4.578125 "/></g></g></g><g fill="#0d0d0d" fill-opacity="1"><g transform="translate(157.879279, 53.627113)"><g><path d="M 6.8125 -3.09375 L 6.8125 -2.609375 L 1.59375 -2.609375 C 1.675781 -2.085938 1.921875 -1.664062 2.328125 -1.34375 C 2.742188 -1.007812 3.203125 -0.84375 3.703125 -0.84375 C 4.046875 -0.84375 4.375 -0.925781 4.6875 -1.09375 C 5 -1.25 5.257812 -1.460938 5.46875 -1.734375 L 6.546875 -1.734375 C 6.285156 -1.171875 5.90625 -0.726562 5.40625 -0.40625 C 4.894531 -0.0703125 4.378906 0.09375 3.859375 0.09375 C 3.328125 0.09375 2.878906 0.015625 2.515625 -0.140625 C 2.128906 -0.304688 1.800781 -0.53125 1.53125 -0.8125 C 0.914062 -1.40625 0.609375 -2.132812 0.609375 -3 C 0.609375 -3.851562 0.914062 -4.582031 1.53125 -5.1875 C 2.125 -5.789062 2.847656 -6.09375 3.703125 -6.09375 C 4.535156 -6.09375 5.257812 -5.800781 5.875 -5.21875 C 6.5 -4.625 6.8125 -3.914062 6.8125 -3.09375 Z M 5.8125 -3.40625 C 5.707031 -3.914062 5.457031 -4.335938 5.0625 -4.671875 C 4.664062 -4.992188 4.210938 -5.15625 3.703125 -5.15625 C 2.929688 -5.15625 2.328125 -4.804688 1.890625 -4.109375 C 1.753906 -3.898438 1.660156 -3.664062 1.609375 -3.40625 Z M 5.8125 -3.40625 "/></g></g></g><g fill="#0d0d0d" fill-opacity="1"><g transform="translate(165.219963, 53.627113)"><g><path d="M 1.953125 0 L 1.015625 0 L 1.015625 -10.109375 L 1.953125 -10.109375 Z M 1.953125 0 "/></g></g></g><g fill="#0d0d0d" fill-opacity="1"><g transform="translate(168.183177, 53.627113)"><g><path d="M 1.96875 -7.984375 C 2.082031 -7.867188 2.140625 -7.726562 2.140625 -7.5625 C 2.140625 -7.394531 2.082031 -7.253906 1.96875 -7.140625 C 1.851562 -7.015625 1.710938 -6.953125 1.546875 -6.953125 C 1.378906 -6.953125 1.238281 -7.015625 1.125 -7.140625 C 1 -7.253906 0.9375 -7.394531 0.9375 -7.5625 C 0.9375 -7.726562 1 -7.867188 1.125 -7.984375 C 1.238281 -8.097656 1.378906 -8.15625 1.546875 -8.15625 C 1.710938 -8.15625 1.851562 -8.097656 1.96875 -7.984375 Z M 2.015625 0 L 1.078125 0 L 1.078125 -5.9375 L 2.015625 -5.9375 Z M 2.015625 0 "/></g></g></g><g fill="#0d0d0d" fill-opacity="1"><g transform="translate(171.267609, 53.627113)"><g><path d="M 2.875 0.5625 L 0.140625 -5.9375 L 1.15625 -5.9375 L 2.875 -1.53125 L 4.578125 -5.9375 L 5.59375 -5.9375 Z M 2.875 0.5625 "/></g></g></g><g fill="#0d0d0d" fill-opacity="1"><g transform="translate(176.991989, 53.627113)"><g><path d="M 6.8125 -3.09375 L 6.8125 -2.609375 L 1.59375 -2.609375 C 1.675781 -2.085938 1.921875 -1.664062 2.328125 -1.34375 C 2.742188 -1.007812 3.203125 -0.84375 3.703125 -0.84375 C 4.046875 -0.84375 4.375 -0.925781 4.6875 -1.09375 C 5 -1.25 5.257812 -1.460938 5.46875 -1.734375 L 6.546875 -1.734375 C 6.285156 -1.171875 5.90625 -0.726562 5.40625 -0.40625 C 4.894531 -0.0703125 4.378906 0.09375 3.859375 0.09375 C 3.328125 0.09375 2.878906 0.015625 2.515625 -0.140625 C 2.128906 -0.304688 1.800781 -0.53125 1.53125 -0.8125 C 0.914062 -1.40625 0.609375 -2.132812 0.609375 -3 C 0.609375 -3.851562 0.914062 -4.582031 1.53125 -5.1875 C 2.125 -5.789062 2.847656 -6.09375 3.703125 -6.09375 C 4.535156 -6.09375 5.257812 -5.800781 5.875 -5.21875 C 6.5 -4.625 6.8125 -3.914062 6.8125 -3.09375 Z M 5.8125 -3.40625 C 5.707031 -3.914062 5.457031 -4.335938 5.0625 -4.671875 C 4.664062 -4.992188 4.210938 -5.15625 3.703125 -5.15625 C 2.929688 -5.15625 2.328125 -4.804688 1.890625 -4.109375 C 1.753906 -3.898438 1.660156 -3.664062 1.609375 -3.40625 Z M 5.8125 -3.40625 "/></g></g></g><g fill="#0d0d0d" fill-opacity="1"><g transform="translate(184.332673, 53.627113)"><g><path d="M 4.0625 -4.703125 C 3.84375 -4.898438 3.609375 -5 3.359375 -5 C 3.117188 -5 2.910156 -4.929688 2.734375 -4.796875 C 2.554688 -4.648438 2.410156 -4.476562 2.296875 -4.28125 C 2.066406 -3.882812 1.953125 -3.445312 1.953125 -2.96875 L 1.953125 0 L 1.015625 0 L 1.015625 -5.9375 L 1.953125 -5.9375 L 1.953125 -4.703125 L 2 -4.953125 C 2.3125 -5.679688 2.800781 -6.046875 3.46875 -6.046875 C 3.675781 -6.046875 3.875 -6.007812 4.0625 -5.9375 Z M 4.0625 -4.703125 "/></g></g></g><g fill="#0d0d0d" fill-opacity="1"><g transform="translate(188.521578, 53.627113)"><g><path d="M 1.796875 0.140625 C 1.585938 0.140625 1.40625 0.0625 1.25 -0.09375 C 1.09375 -0.238281 1.015625 -0.414062 1.015625 -0.625 C 1.015625 -0.832031 1.085938 -1.007812 1.234375 -1.15625 C 1.390625 -1.3125 1.578125 -1.390625 1.796875 -1.390625 C 2.003906 -1.390625 2.191406 -1.316406 2.359375 -1.171875 C 2.515625 -1.015625 2.59375 -0.835938 2.59375 -0.640625 C 2.59375 -0.421875 2.507812 -0.238281 2.34375 -0.09375 C 2.1875 0.0625 2.003906 0.140625 1.796875 0.140625 Z M 1.796875 0.140625 "/></g></g></g><g fill="#0d0d0d" fill-opacity="1"><g transform="translate(192.117843, 53.627113)"><g/></g></g><g fill="#0d0d0d" fill-opacity="1"><g transform="translate(195.754506, 53.627113)"><g><path d="M 7.640625 -3.03125 C 7.640625 -2.039062 7.316406 -1.257812 6.671875 -0.6875 C 6.066406 -0.144531 5.253906 0.125 4.234375 0.125 C 3.210938 0.125 2.394531 -0.144531 1.78125 -0.6875 C 1.132812 -1.257812 0.8125 -2.039062 0.8125 -3.03125 L 0.8125 -9.171875 L 1.75 -9.171875 L 1.75 -2.90625 C 1.75 -2.207031 2.003906 -1.675781 2.515625 -1.3125 C 2.941406 -0.988281 3.515625 -0.828125 4.234375 -0.828125 C 5.359375 -0.828125 6.113281 -1.203125 6.5 -1.953125 C 6.632812 -2.210938 6.703125 -2.53125 6.703125 -2.90625 L 6.703125 -9.171875 L 7.640625 -9.171875 Z M 7.640625 -3.03125 "/></g></g></g><g fill="#0d0d0d" fill-opacity="1"><g transform="translate(204.199651, 53.627113)"><g><path d="M 1.953125 3.375 L 1.015625 3.375 L 1.015625 -5.9375 L 1.953125 -5.9375 L 1.953125 -4.921875 C 2.003906 -4.992188 2.0625 -5.0625 2.125 -5.125 C 2.6875 -5.75 3.375 -6.0625 4.1875 -6.0625 C 5.007812 -6.0625 5.703125 -5.75 6.265625 -5.125 C 6.804688 -4.507812 7.078125 -3.789062 7.078125 -2.96875 C 7.078125 -2.132812 6.804688 -1.414062 6.265625 -0.8125 C 5.703125 -0.175781 5.007812 0.140625 4.1875 0.140625 C 3.375 0.140625 2.6875 -0.175781 2.125 -0.8125 C 2.0625 -0.875 2.003906 -0.941406 1.953125 -1.015625 Z M 6.140625 -2.96875 C 6.140625 -3.539062 5.941406 -4.046875 5.546875 -4.484375 C 5.140625 -4.910156 4.640625 -5.125 4.046875 -5.125 C 3.453125 -5.125 2.957031 -4.910156 2.5625 -4.484375 C 2.15625 -4.046875 1.953125 -3.539062 1.953125 -2.96875 C 1.953125 -2.394531 2.15625 -1.890625 2.5625 -1.453125 C 2.957031 -1.023438 3.453125 -0.8125 4.046875 -0.8125 C 4.640625 -0.8125 5.140625 -1.023438 5.546875 -1.453125 C 5.941406 -1.890625 6.140625 -2.394531 6.140625 -2.96875 Z M 6.140625 -2.96875 "/></g></g></g><g fill="#0d0d0d" fill-opacity="1"><g transform="translate(211.877054, 53.627113)"><g><path d="M 5.8125 -2.96875 C 5.8125 -3.539062 5.613281 -4.046875 5.21875 -4.484375 C 4.8125 -4.910156 4.3125 -5.125 3.71875 -5.125 C 3.144531 -5.125 2.648438 -4.910156 2.234375 -4.484375 C 1.828125 -4.054688 1.625 -3.550781 1.625 -2.96875 C 1.625 -2.382812 1.828125 -1.878906 2.234375 -1.453125 C 2.648438 -1.023438 3.144531 -0.8125 3.71875 -0.8125 C 4.3125 -0.8125 4.8125 -1.023438 5.21875 -1.453125 C 5.613281 -1.890625 5.8125 -2.394531 5.8125 -2.96875 Z M 1.609375 0.8125 C 1.691406 1.175781 1.882812 1.503906 2.1875 1.796875 C 2.601562 2.210938 3.101562 2.421875 3.6875 2.421875 C 4.269531 2.421875 4.769531 2.210938 5.1875 1.796875 C 5.601562 1.378906 5.8125 0.878906 5.8125 0.296875 L 5.8125 -1 C 5.769531 -0.9375 5.71875 -0.875 5.65625 -0.8125 C 5.09375 -0.175781 4.40625 0.140625 3.59375 0.140625 C 2.757812 0.140625 2.066406 -0.175781 1.515625 -0.8125 C 0.960938 -1.414062 0.6875 -2.132812 0.6875 -2.96875 C 0.6875 -3.789062 0.960938 -4.507812 1.515625 -5.125 C 2.066406 -5.75 2.757812 -6.0625 3.59375 -6.0625 C 4.382812 -6.0625 5.070312 -5.75 5.65625 -5.125 C 5.71875 -5.0625 5.769531 -5 5.8125 -4.9375 L 5.8125 -5.9375 L 6.75 -5.9375 L 6.75 0.296875 C 6.75 1.140625 6.453125 1.863281 5.859375 2.46875 C 5.253906 3.070312 4.53125 3.375 3.6875 3.375 C 2.832031 3.375 2.109375 3.070312 1.515625 2.46875 C 1.035156 1.988281 0.742188 1.4375 0.640625 0.8125 Z M 1.609375 0.8125 "/></g></g></g><g fill="#0d0d0d" fill-opacity="1"><g transform="translate(219.635277, 53.627113)"><g><path d="M 4.0625 -4.703125 C 3.84375 -4.898438 3.609375 -5 3.359375 -5 C 3.117188 -5 2.910156 -4.929688 2.734375 -4.796875 C 2.554688 -4.648438 2.410156 -4.476562 2.296875 -4.28125 C 2.066406 -3.882812 1.953125 -3.445312 1.953125 -2.96875 L 1.953125 0 L 1.015625 0 L 1.015625 -5.9375 L 1.953125 -5.9375 L 1.953125 -4.703125 L 2 -4.953125 C 2.3125 -5.679688 2.800781 -6.046875 3.46875 -6.046875 C 3.675781 -6.046875 3.875 -6.007812 4.0625 -5.9375 Z M 4.0625 -4.703125 "/></g></g></g><g fill="#0d0d0d" fill-opacity="1"><g transform="translate(223.824182, 53.627113)"><g><path d="M 5.734375 -2.96875 C 5.734375 -3.539062 5.535156 -4.046875 5.140625 -4.484375 C 4.734375 -4.910156 4.234375 -5.125 3.640625 -5.125 C 3.046875 -5.125 2.550781 -4.910156 2.15625 -4.484375 C 1.75 -4.046875 1.546875 -3.539062 1.546875 -2.96875 C 1.546875 -2.394531 1.75 -1.890625 2.15625 -1.453125 C 2.550781 -1.023438 3.046875 -0.8125 3.640625 -0.8125 C 4.234375 -0.8125 4.734375 -1.023438 5.140625 -1.453125 C 5.535156 -1.890625 5.734375 -2.394531 5.734375 -2.96875 Z M 6.671875 0 L 5.734375 0 L 5.734375 -1.015625 C 5.679688 -0.941406 5.625 -0.875 5.5625 -0.8125 C 5 -0.175781 4.3125 0.140625 3.5 0.140625 C 2.675781 0.140625 1.984375 -0.175781 1.421875 -0.8125 C 0.878906 -1.414062 0.609375 -2.132812 0.609375 -2.96875 C 0.609375 -3.789062 0.878906 -4.507812 1.421875 -5.125 C 1.984375 -5.75 2.675781 -6.0625 3.5 -6.0625 C 4.3125 -6.0625 5 -5.75 5.5625 -5.125 C 5.625 -5.0625 5.679688 -4.992188 5.734375 -4.921875 L 5.734375 -5.9375 L 6.671875 -5.9375 Z M 6.671875 0 "/></g></g></g><g fill="#0d0d0d" fill-opacity="1"><g transform="translate(231.501585, 53.627113)"><g><path d="M 5.734375 -2.96875 C 5.734375 -3.539062 5.535156 -4.046875 5.140625 -4.484375 C 4.734375 -4.910156 4.234375 -5.125 3.640625 -5.125 C 3.046875 -5.125 2.550781 -4.910156 2.15625 -4.484375 C 1.75 -4.046875 1.546875 -3.539062 1.546875 -2.96875 C 1.546875 -2.394531 1.75 -1.890625 2.15625 -1.453125 C 2.550781 -1.023438 3.046875 -0.8125 3.640625 -0.8125 C 4.234375 -0.8125 4.734375 -1.023438 5.140625 -1.453125 C 5.535156 -1.890625 5.734375 -2.394531 5.734375 -2.96875 Z M 6.671875 0 L 5.734375 0 L 5.734375 -1.015625 C 5.679688 -0.941406 5.625 -0.875 5.5625 -0.8125 C 5 -0.175781 4.3125 0.140625 3.5 0.140625 C 2.675781 0.140625 1.984375 -0.175781 1.421875 -0.8125 C 0.878906 -1.414062 0.609375 -2.132812 0.609375 -2.96875 C 0.609375 -3.789062 0.878906 -4.507812 1.421875 -5.125 C 1.984375 -5.75 2.675781 -6.0625 3.5 -6.0625 C 4.3125 -6.0625 5 -5.75 5.5625 -5.125 C 5.625 -5.0625 5.679688 -4.992188 5.734375 -4.921875 L 5.734375 -10.109375 L 6.671875 -10.109375 Z M 6.671875 0 "/></g></g></g><g fill="#0d0d0d" fill-opacity="1"><g transform="translate(239.178988, 53.627113)"><g><path d="M 6.8125 -3.09375 L 6.8125 -2.609375 L 1.59375 -2.609375 C 1.675781 -2.085938 1.921875 -1.664062 2.328125 -1.34375 C 2.742188 -1.007812 3.203125 -0.84375 3.703125 -0.84375 C 4.046875 -0.84375 4.375 -0.925781 4.6875 -1.09375 C 5 -1.25 5.257812 -1.460938 5.46875 -1.734375 L 6.546875 -1.734375 C 6.285156 -1.171875 5.90625 -0.726562 5.40625 -0.40625 C 4.894531 -0.0703125 4.378906 0.09375 3.859375 0.09375 C 3.328125 0.09375 2.878906 0.015625 2.515625 -0.140625 C 2.128906 -0.304688 1.800781 -0.53125 1.53125 -0.8125 C 0.914062 -1.40625 0.609375 -2.132812 0.609375 -3 C 0.609375 -3.851562 0.914062 -4.582031 1.53125 -5.1875 C 2.125 -5.789062 2.847656 -6.09375 3.703125 -6.09375 C 4.535156 -6.09375 5.257812 -5.800781 5.875 -5.21875 C 6.5 -4.625 6.8125 -3.914062 6.8125 -3.09375 Z M 5.8125 -3.40625 C 5.707031 -3.914062 5.457031 -4.335938 5.0625 -4.671875 C 4.664062 -4.992188 4.210938 -5.15625 3.703125 -5.15625 C 2.929688 -5.15625 2.328125 -4.804688 1.890625 -4.109375 C 1.753906 -3.898438 1.660156 -3.664062 1.609375 -3.40625 Z M 5.8125 -3.40625 "/></g></g></g></g></g></svg>