<svg xmlns="http://www.w3.org/2000/svg" xmlns:xlink="http://www.w3.org/1999/xlink" width="500" zoomAndPan="magnify" viewBox="0 0 375 374.999991" height="500" preserveAspectRatio="xMidYMid meet" version="1.0"><defs><g/><clipPath id="0094d5af4f"><path d="M 54.875 138.683594 L 74 138.683594 L 74 152 L 54.875 152 Z M 54.875 138.683594 " clip-rule="nonzero"/></clipPath></defs><rect x="-37.5" width="450" fill="#ffffff" y="-37.499999" height="449.999989" fill-opacity="1"/><rect x="-37.5" width="450" fill="#ffffff" y="-37.499999" height="449.999989" fill-opacity="1"/><g fill="#272727" fill-opacity="1"><g transform="translate(58.342453, 177.341751)"><g><path d="M 21.6875 -28.34375 C 23.914062 -28.34375 25.003906 -27.1875 24.953125 -24.875 C 24.921875 -17.75 24.921875 -10.617188 24.953125 -3.484375 C 24.984375 -2.359375 24.695312 -1.492188 24.09375 -0.890625 C 23.488281 -0.296875 22.628906 0 21.515625 0 L 20.90625 0 C 19 0 17.632812 -0.859375 16.8125 -2.578125 L 8.921875 -18.984375 L 8.828125 -18.984375 C 8.890625 -16.085938 8.972656 -13.410156 9.078125 -10.953125 C 9.191406 -8.503906 9.328125 -6.050781 9.484375 -3.59375 C 9.617188 -1.195312 8.582031 0 6.375 0 C 5.3125 0 4.492188 -0.296875 3.921875 -0.890625 C 3.347656 -1.492188 3.078125 -2.359375 3.109375 -3.484375 C 3.140625 -10.617188 3.140625 -17.75 3.109375 -24.875 C 3.078125 -25.988281 3.363281 -26.84375 3.96875 -27.4375 C 4.570312 -28.039062 5.429688 -28.34375 6.546875 -28.34375 L 8.625 -28.34375 C 10.539062 -28.34375 11.90625 -27.484375 12.71875 -25.765625 L 19.109375 -12.46875 L 19.1875 -12.46875 C 19.132812 -14.707031 19.050781 -16.835938 18.9375 -18.859375 C 18.832031 -20.878906 18.710938 -22.84375 18.578125 -24.75 C 18.410156 -27.144531 19.445312 -28.34375 21.6875 -28.34375 Z M 21.6875 -28.34375 "/></g></g></g><g fill="#272727" fill-opacity="1"><g transform="translate(85.752115, 177.341751)"><g><path d="M 12.390625 0.046875 L 6.546875 0 C 4.222656 0 3.0625 -1.128906 3.0625 -3.390625 C 3.0625 -4.316406 3.066406 -5.375 3.078125 -6.5625 C 3.097656 -7.75 3.113281 -9.160156 3.125 -10.796875 C 3.144531 -12.429688 3.15625 -14.378906 3.15625 -16.640625 C 3.15625 -18.910156 3.15625 -21.597656 3.15625 -24.703125 C 3.15625 -27.128906 4.3125 -28.34375 6.625 -28.34375 L 12.390625 -28.34375 C 15.503906 -28.34375 18.019531 -27.882812 19.9375 -26.96875 C 21.863281 -26.0625 23.273438 -24.597656 24.171875 -22.578125 C 25.078125 -20.554688 25.53125 -17.882812 25.53125 -14.5625 C 25.53125 -9.601562 24.5 -5.9375 22.4375 -3.5625 C 20.375 -1.1875 17.023438 0.015625 12.390625 0.046875 Z M 10.765625 -5.640625 L 12.234375 -5.640625 C 14.359375 -5.640625 15.84375 -6.382812 16.6875 -7.875 C 17.53125 -9.363281 17.953125 -11.46875 17.953125 -14.1875 C 17.953125 -16.289062 17.78125 -17.960938 17.4375 -19.203125 C 17.101562 -20.441406 16.519531 -21.332031 15.6875 -21.875 C 14.851562 -22.425781 13.703125 -22.703125 12.234375 -22.703125 L 10.765625 -22.703125 C 10.765625 -21.773438 10.753906 -20.769531 10.734375 -19.6875 C 10.722656 -18.613281 10.71875 -17.320312 10.71875 -15.8125 C 10.71875 -14.300781 10.71875 -12.367188 10.71875 -10.015625 C 10.71875 -9.285156 10.71875 -8.550781 10.71875 -7.8125 C 10.71875 -7.070312 10.734375 -6.347656 10.765625 -5.640625 Z M 10.765625 -5.640625 "/></g></g></g><g fill="#272727" fill-opacity="1"><g transform="translate(112.670861, 177.341751)"><g><path d="M 13.828125 0.40625 C 6.515625 0.40625 2.859375 -2.957031 2.859375 -9.6875 C 2.859375 -11.707031 2.863281 -13.734375 2.875 -15.765625 C 2.894531 -17.796875 2.90625 -19.804688 2.90625 -21.796875 C 2.90625 -22.316406 2.90625 -22.828125 2.90625 -23.328125 C 2.90625 -23.835938 2.90625 -24.351562 2.90625 -24.875 C 2.90625 -27.1875 4.050781 -28.34375 6.34375 -28.34375 L 7.078125 -28.34375 C 8.191406 -28.34375 9.046875 -28.039062 9.640625 -27.4375 C 10.242188 -26.84375 10.535156 -25.988281 10.515625 -24.875 C 10.515625 -23.863281 10.515625 -22.863281 10.515625 -21.875 C 10.515625 -20.894531 10.515625 -19.90625 10.515625 -18.90625 C 10.515625 -17.40625 10.515625 -15.910156 10.515625 -14.421875 C 10.515625 -12.929688 10.523438 -11.4375 10.546875 -9.9375 C 10.578125 -8.164062 10.835938 -6.914062 11.328125 -6.1875 C 11.816406 -5.46875 12.648438 -5.109375 13.828125 -5.109375 C 15.191406 -5.109375 16.140625 -5.46875 16.671875 -6.1875 C 17.203125 -6.914062 17.46875 -8.164062 17.46875 -9.9375 C 17.5 -11.4375 17.519531 -12.929688 17.53125 -14.421875 C 17.539062 -15.910156 17.546875 -17.40625 17.546875 -18.90625 C 17.546875 -19.882812 17.546875 -20.867188 17.546875 -21.859375 C 17.546875 -22.859375 17.535156 -23.847656 17.515625 -24.828125 C 17.484375 -25.972656 17.773438 -26.84375 18.390625 -27.4375 C 19.003906 -28.039062 19.867188 -28.34375 20.984375 -28.34375 L 21.03125 -28.34375 C 22.144531 -28.34375 23 -28.039062 23.59375 -27.4375 C 24.195312 -26.84375 24.488281 -25.988281 24.46875 -24.875 C 24.46875 -23.863281 24.46875 -22.863281 24.46875 -21.875 C 24.46875 -20.894531 24.46875 -19.90625 24.46875 -18.90625 C 24.46875 -17.375 24.472656 -15.835938 24.484375 -14.296875 C 24.492188 -12.753906 24.5 -11.21875 24.5 -9.6875 C 24.5 -2.957031 20.941406 0.40625 13.828125 0.40625 Z M 13.828125 0.40625 "/></g></g></g><g fill="#ffc60b" fill-opacity="1"><g transform="translate(139.389323, 177.341751)"><g><path d="M 6.546875 0 C 4.222656 0 3.0625 -1.160156 3.0625 -3.484375 C 3.09375 -5.253906 3.113281 -7.03125 3.125 -8.8125 C 3.144531 -10.601562 3.15625 -12.394531 3.15625 -14.1875 C 3.15625 -15.96875 3.144531 -17.75 3.125 -19.53125 C 3.113281 -21.320312 3.09375 -23.101562 3.0625 -24.875 C 3.0625 -27.1875 4.222656 -28.34375 6.546875 -28.34375 L 13.578125 -28.34375 C 17.722656 -28.34375 20.734375 -27.640625 22.609375 -26.234375 C 24.492188 -24.835938 25.4375 -22.570312 25.4375 -19.4375 C 25.4375 -17.195312 24.898438 -15.257812 23.828125 -13.625 C 22.753906 -11.988281 21.234375 -10.726562 19.265625 -9.84375 C 17.304688 -8.957031 14.960938 -8.515625 12.234375 -8.515625 L 10.71875 -8.515625 C 10.71875 -7.660156 10.71875 -6.816406 10.71875 -5.984375 C 10.71875 -5.160156 10.734375 -4.328125 10.765625 -3.484375 C 10.765625 -1.160156 9.601562 0 7.28125 0 Z M 10.71875 -14.3125 L 12.109375 -14.3125 C 14.046875 -14.3125 15.4375 -14.6875 16.28125 -15.4375 C 17.125 -16.1875 17.546875 -17.410156 17.546875 -19.109375 C 17.546875 -20.390625 17.164062 -21.304688 16.40625 -21.859375 C 15.644531 -22.421875 14.414062 -22.703125 12.71875 -22.703125 L 10.765625 -22.703125 C 10.734375 -21.609375 10.71875 -20.441406 10.71875 -19.203125 C 10.71875 -17.960938 10.71875 -16.332031 10.71875 -14.3125 Z M 10.71875 -14.3125 "/></g></g></g><g fill="#ffc60b" fill-opacity="1"><g transform="translate(165.817139, 177.341751)"><g><path d="M 6.546875 0 C 4.222656 0 3.0625 -1.160156 3.0625 -3.484375 C 3.09375 -5.253906 3.113281 -7.03125 3.125 -8.8125 C 3.144531 -10.601562 3.15625 -12.394531 3.15625 -14.1875 C 3.15625 -15.96875 3.144531 -17.75 3.125 -19.53125 C 3.113281 -21.320312 3.09375 -23.101562 3.0625 -24.875 C 3.0625 -27.1875 4.222656 -28.34375 6.546875 -28.34375 L 13.578125 -28.34375 C 17.722656 -28.34375 20.734375 -27.675781 22.609375 -26.34375 C 24.492188 -25.007812 25.4375 -22.84375 25.4375 -19.84375 C 25.4375 -18.007812 24.9375 -16.4375 23.9375 -15.125 C 22.945312 -13.820312 21.582031 -12.953125 19.84375 -12.515625 L 19.84375 -12.359375 C 21.207031 -11.941406 22.320312 -11.066406 23.1875 -9.734375 C 24.0625 -8.398438 24.785156 -6.460938 25.359375 -3.921875 C 25.628906 -2.703125 25.472656 -1.742188 24.890625 -1.046875 C 24.304688 -0.347656 23.414062 0 22.21875 0 L 20.90625 0 C 18.78125 0 17.550781 -1.101562 17.21875 -3.3125 C 17.03125 -4.625 16.757812 -5.796875 16.40625 -6.828125 C 16.050781 -7.867188 15.546875 -8.691406 14.890625 -9.296875 C 14.234375 -9.910156 13.347656 -10.21875 12.234375 -10.21875 L 10.71875 -10.21875 C 10.71875 -9.101562 10.71875 -7.976562 10.71875 -6.84375 C 10.71875 -5.71875 10.734375 -4.597656 10.765625 -3.484375 C 10.765625 -1.160156 9.601562 0 7.28125 0 Z M 10.71875 -14.71875 L 12.109375 -14.71875 C 14.046875 -14.71875 15.4375 -15.054688 16.28125 -15.734375 C 17.125 -16.421875 17.546875 -17.546875 17.546875 -19.109375 C 17.546875 -20.390625 17.164062 -21.304688 16.40625 -21.859375 C 15.644531 -22.421875 14.414062 -22.703125 12.71875 -22.703125 L 10.765625 -22.703125 C 10.734375 -21.691406 10.71875 -20.59375 10.71875 -19.40625 C 10.71875 -18.21875 10.71875 -16.65625 10.71875 -14.71875 Z M 10.71875 -14.71875 "/></g></g></g><g fill="#ffc60b" fill-opacity="1"><g transform="translate(192.735861, 177.341751)"><g><path d="M 14.078125 0.40625 C 6.054688 0.40625 2.046875 -4.457031 2.046875 -14.1875 C 2.046875 -23.894531 6.054688 -28.75 14.078125 -28.75 C 22.066406 -28.75 26.0625 -23.894531 26.0625 -14.1875 C 26.0625 -4.457031 22.066406 0.40625 14.078125 0.40625 Z M 14.078125 -5.109375 C 15.160156 -5.109375 16.003906 -5.378906 16.609375 -5.921875 C 17.210938 -6.472656 17.632812 -7.410156 17.875 -8.734375 C 18.125 -10.054688 18.25 -11.875 18.25 -14.1875 C 18.25 -16.507812 18.125 -18.320312 17.875 -19.625 C 17.632812 -20.9375 17.210938 -21.863281 16.609375 -22.40625 C 16.003906 -22.957031 15.160156 -23.234375 14.078125 -23.234375 C 13.003906 -23.234375 12.160156 -22.957031 11.546875 -22.40625 C 10.941406 -21.863281 10.507812 -20.9375 10.25 -19.625 C 9.988281 -18.320312 9.859375 -16.507812 9.859375 -14.1875 C 9.859375 -11.875 9.988281 -10.054688 10.25 -8.734375 C 10.507812 -7.410156 10.941406 -6.472656 11.546875 -5.921875 C 12.160156 -5.378906 13.003906 -5.109375 14.078125 -5.109375 Z M 14.078125 -5.109375 "/></g></g></g><g fill="#ffc60b" fill-opacity="1"><g transform="translate(220.063699, 177.341751)"><g><path d="M 6.953125 0.8125 C 6.429688 0.8125 5.90625 0.785156 5.375 0.734375 C 4.84375 0.679688 4.304688 0.597656 3.765625 0.484375 C 2.753906 0.265625 2.023438 -0.179688 1.578125 -0.859375 C 1.128906 -1.535156 0.90625 -2.378906 0.90625 -3.390625 C 0.90625 -5.847656 1.597656 -6.875 2.984375 -6.46875 C 3.640625 -6.21875 4.375 -6.09375 5.1875 -6.09375 C 6.394531 -6.09375 7.285156 -6.410156 7.859375 -7.046875 C 8.429688 -7.691406 8.726562 -8.722656 8.75 -10.140625 C 8.78125 -11.585938 8.796875 -13.046875 8.796875 -14.515625 C 8.796875 -15.992188 8.796875 -17.457031 8.796875 -18.90625 C 8.796875 -19.90625 8.796875 -20.894531 8.796875 -21.875 C 8.796875 -22.863281 8.796875 -23.863281 8.796875 -24.875 C 8.765625 -25.988281 9.046875 -26.84375 9.640625 -27.4375 C 10.242188 -28.039062 11.109375 -28.34375 12.234375 -28.34375 L 12.96875 -28.34375 C 14.082031 -28.34375 14.9375 -28.039062 15.53125 -27.4375 C 16.132812 -26.84375 16.425781 -25.988281 16.40625 -24.875 C 16.40625 -22.363281 16.410156 -19.835938 16.421875 -17.296875 C 16.429688 -14.765625 16.4375 -12.226562 16.4375 -9.6875 C 16.4375 -6.175781 15.582031 -3.546875 13.875 -1.796875 C 12.175781 -0.0546875 9.867188 0.8125 6.953125 0.8125 Z M 6.953125 0.8125 "/></g></g></g><g fill="#ffc60b" fill-opacity="1"><g transform="translate(238.718597, 177.341751)"><g><path d="M 10.71875 -5.4375 C 11.914062 -5.46875 13.113281 -5.484375 14.3125 -5.484375 C 15.507812 -5.484375 16.679688 -5.492188 17.828125 -5.515625 C 20.148438 -5.515625 21.3125 -4.601562 21.3125 -2.78125 C 21.3125 -0.925781 20.148438 0 17.828125 0 L 6.546875 0 C 5.429688 0 4.570312 -0.296875 3.96875 -0.890625 C 3.363281 -1.492188 3.078125 -2.359375 3.109375 -3.484375 C 3.109375 -5.273438 3.113281 -7.0625 3.125 -8.84375 C 3.144531 -10.632812 3.15625 -12.414062 3.15625 -14.1875 C 3.15625 -15.96875 3.144531 -17.75 3.125 -19.53125 C 3.113281 -21.320312 3.109375 -23.101562 3.109375 -24.875 C 3.078125 -25.988281 3.363281 -26.84375 3.96875 -27.4375 C 4.570312 -28.039062 5.429688 -28.34375 6.546875 -28.34375 L 17.421875 -28.34375 C 19.742188 -28.34375 20.90625 -27.429688 20.90625 -25.609375 C 20.90625 -23.753906 19.742188 -22.828125 17.421875 -22.828125 C 16.335938 -22.847656 15.226562 -22.859375 14.09375 -22.859375 C 12.957031 -22.859375 11.832031 -22.875 10.71875 -22.90625 L 10.71875 -16.65625 C 11.59375 -16.675781 12.453125 -16.6875 13.296875 -16.6875 C 14.140625 -16.6875 14.972656 -16.703125 15.796875 -16.734375 C 18.109375 -16.734375 19.265625 -15.816406 19.265625 -13.984375 C 19.265625 -12.128906 18.109375 -11.203125 15.796875 -11.203125 C 14.972656 -11.234375 14.140625 -11.25 13.296875 -11.25 C 12.453125 -11.25 11.59375 -11.265625 10.71875 -11.296875 Z M 10.71875 -5.4375 "/></g></g></g><g fill="#ffc60b" fill-opacity="1"><g transform="translate(261.178129, 177.341751)"><g><path d="M 13.78125 0.40625 C 9.71875 0.40625 6.738281 -0.8125 4.84375 -3.25 C 2.945312 -5.6875 2 -9.332031 2 -14.1875 C 2 -23.894531 6.023438 -28.75 14.078125 -28.75 C 17.097656 -28.75 19.515625 -28.015625 21.328125 -26.546875 C 23.140625 -25.078125 24.171875 -22.953125 24.421875 -20.171875 C 24.523438 -19.023438 24.242188 -18.15625 23.578125 -17.5625 C 22.910156 -16.976562 22.019531 -16.6875 20.90625 -16.6875 L 20.65625 -16.6875 C 19.539062 -16.6875 18.726562 -16.992188 18.21875 -17.609375 C 17.71875 -18.222656 17.382812 -19.117188 17.21875 -20.296875 C 17.050781 -21.359375 16.703125 -22.113281 16.171875 -22.5625 C 15.640625 -23.007812 14.859375 -23.234375 13.828125 -23.234375 C 12.410156 -23.234375 11.394531 -22.554688 10.78125 -21.203125 C 10.164062 -19.859375 9.859375 -17.519531 9.859375 -14.1875 C 9.859375 -11.789062 10.023438 -9.941406 10.359375 -8.640625 C 10.703125 -7.347656 11.175781 -6.457031 11.78125 -5.96875 C 12.382812 -5.476562 13.066406 -5.234375 13.828125 -5.234375 C 14.703125 -5.234375 15.394531 -5.382812 15.90625 -5.6875 C 16.425781 -5.988281 16.8125 -6.503906 17.0625 -7.234375 C 17.414062 -8.328125 17.847656 -9.148438 18.359375 -9.703125 C 18.878906 -10.265625 19.671875 -10.546875 20.734375 -10.546875 L 20.78125 -10.546875 C 21.894531 -10.546875 22.785156 -10.234375 23.453125 -9.609375 C 24.128906 -8.984375 24.359375 -8.070312 24.140625 -6.875 C 23.722656 -4.394531 22.617188 -2.5625 20.828125 -1.375 C 19.046875 -0.1875 16.695312 0.40625 13.78125 0.40625 Z M 13.78125 0.40625 "/></g></g></g><g fill="#ffc60b" fill-opacity="1"><g transform="translate(286.501374, 177.341751)"><g><path d="M 22.953125 -25.609375 C 22.953125 -24.734375 22.648438 -24.050781 22.046875 -23.5625 C 21.453125 -23.070312 20.582031 -22.828125 19.4375 -22.828125 C 18.78125 -22.847656 18.148438 -22.859375 17.546875 -22.859375 C 16.953125 -22.859375 16.335938 -22.859375 15.703125 -22.859375 L 15.703125 -14.1875 C 15.703125 -12.394531 15.703125 -10.609375 15.703125 -8.828125 C 15.703125 -7.054688 15.703125 -5.273438 15.703125 -3.484375 C 15.734375 -2.359375 15.445312 -1.492188 14.84375 -0.890625 C 14.25 -0.296875 13.390625 0 12.265625 0 L 11.53125 0 C 9.21875 0 8.0625 -1.160156 8.0625 -3.484375 C 8.082031 -5.253906 8.097656 -7.03125 8.109375 -8.8125 C 8.128906 -10.601562 8.140625 -12.394531 8.140625 -14.1875 C 8.140625 -15.632812 8.128906 -17.085938 8.109375 -18.546875 C 8.097656 -20.003906 8.09375 -21.441406 8.09375 -22.859375 C 7.519531 -22.859375 6.941406 -22.859375 6.359375 -22.859375 C 5.773438 -22.859375 5.171875 -22.847656 4.546875 -22.828125 C 3.398438 -22.828125 2.523438 -23.070312 1.921875 -23.5625 C 1.316406 -24.050781 1.015625 -24.734375 1.015625 -25.609375 C 1.015625 -27.429688 2.175781 -28.34375 4.5 -28.34375 L 19.46875 -28.34375 C 21.789062 -28.34375 22.953125 -27.429688 22.953125 -25.609375 Z M 22.953125 -25.609375 "/></g></g></g><g clip-path="url(#0094d5af4f)"><path fill="#ffc60b" d="M 72.441406 143.503906 C 73.125 144.1875 73.722656 143.957031 73.773438 142.988281 L 73.949219 139.707031 C 73.972656 139.21875 73.601562 138.851562 73.117188 138.875 L 69.835938 139.050781 C 68.863281 139.09375 68.632812 139.699219 69.320312 140.382812 L 70.257812 141.320312 L 65.277344 146.300781 L 62.785156 143.808594 C 62.441406 143.464844 61.882812 143.464844 61.539062 143.808594 L 55.003906 150.347656 C 54.835938 150.515625 54.828125 150.792969 55.003906 150.972656 L 55.625 151.59375 C 55.800781 151.769531 56.078125 151.761719 56.25 151.585938 L 62.164062 145.675781 L 64.652344 148.171875 C 64.996094 148.515625 65.554688 148.515625 65.894531 148.171875 L 71.5 142.566406 Z M 72.441406 143.503906 " fill-opacity="1" fill-rule="evenodd"/></g><g fill="#0d0d0d" fill-opacity="1"><g transform="translate(143.009936, 191.624987)"><g><path d="M 1.953125 -6.75 L 1.953125 0 L 1.015625 0 L 1.015625 -9.75 L 6.15625 -2.421875 L 6.15625 -9.171875 L 7.109375 -9.171875 L 7.109375 0.5625 Z M 1.953125 -6.75 "/></g></g></g><g fill="#0d0d0d" fill-opacity="1"><g transform="translate(151.122778, 191.624987)"><g><path d="M 5.734375 -2.96875 C 5.734375 -3.539062 5.535156 -4.046875 5.140625 -4.484375 C 4.734375 -4.910156 4.234375 -5.125 3.640625 -5.125 C 3.046875 -5.125 2.550781 -4.910156 2.15625 -4.484375 C 1.75 -4.046875 1.546875 -3.539062 1.546875 -2.96875 C 1.546875 -2.394531 1.75 -1.890625 2.15625 -1.453125 C 2.550781 -1.023438 3.046875 -0.8125 3.640625 -0.8125 C 4.234375 -0.8125 4.734375 -1.023438 5.140625 -1.453125 C 5.535156 -1.890625 5.734375 -2.394531 5.734375 -2.96875 Z M 6.671875 0 L 5.734375 0 L 5.734375 -1.015625 C 5.679688 -0.941406 5.625 -0.875 5.5625 -0.8125 C 5 -0.175781 4.3125 0.140625 3.5 0.140625 C 2.675781 0.140625 1.984375 -0.175781 1.421875 -0.8125 C 0.878906 -1.414062 0.609375 -2.132812 0.609375 -2.96875 C 0.609375 -3.789062 0.878906 -4.507812 1.421875 -5.125 C 1.984375 -5.75 2.675781 -6.0625 3.5 -6.0625 C 4.3125 -6.0625 5 -5.75 5.5625 -5.125 C 5.625 -5.0625 5.679688 -4.992188 5.734375 -4.921875 L 5.734375 -5.9375 L 6.671875 -5.9375 Z M 6.671875 0 "/></g></g></g><g fill="#0d0d0d" fill-opacity="1"><g transform="translate(158.804373, 191.624987)"><g><path d="M 2.875 0.5625 L 0.140625 -5.9375 L 1.15625 -5.9375 L 2.875 -1.53125 L 4.578125 -5.9375 L 5.59375 -5.9375 Z M 2.875 0.5625 "/></g></g></g><g fill="#0d0d0d" fill-opacity="1"><g transform="translate(164.531877, 191.624987)"><g><path d="M 1.96875 -7.984375 C 2.082031 -7.867188 2.140625 -7.726562 2.140625 -7.5625 C 2.140625 -7.394531 2.082031 -7.253906 1.96875 -7.140625 C 1.851562 -7.015625 1.710938 -6.953125 1.546875 -6.953125 C 1.378906 -6.953125 1.238281 -7.015625 1.125 -7.140625 C 1 -7.253906 0.9375 -7.394531 0.9375 -7.5625 C 0.9375 -7.726562 1 -7.867188 1.125 -7.984375 C 1.238281 -8.097656 1.378906 -8.15625 1.546875 -8.15625 C 1.710938 -8.15625 1.851562 -8.097656 1.96875 -7.984375 Z M 2.015625 0 L 1.078125 0 L 1.078125 -5.9375 L 2.015625 -5.9375 Z M 2.015625 0 "/></g></g></g><g fill="#0d0d0d" fill-opacity="1"><g transform="translate(167.617994, 191.624987)"><g><path d="M 5.8125 -2.96875 C 5.8125 -3.539062 5.613281 -4.046875 5.21875 -4.484375 C 4.8125 -4.910156 4.3125 -5.125 3.71875 -5.125 C 3.144531 -5.125 2.648438 -4.910156 2.234375 -4.484375 C 1.828125 -4.054688 1.625 -3.550781 1.625 -2.96875 C 1.625 -2.382812 1.828125 -1.878906 2.234375 -1.453125 C 2.648438 -1.023438 3.144531 -0.8125 3.71875 -0.8125 C 4.3125 -0.8125 4.8125 -1.023438 5.21875 -1.453125 C 5.613281 -1.890625 5.8125 -2.394531 5.8125 -2.96875 Z M 1.609375 0.8125 C 1.691406 1.175781 1.882812 1.503906 2.1875 1.796875 C 2.601562 2.210938 3.101562 2.421875 3.6875 2.421875 C 4.269531 2.421875 4.769531 2.210938 5.1875 1.796875 C 5.601562 1.378906 5.8125 0.878906 5.8125 0.296875 L 5.8125 -1 C 5.769531 -0.9375 5.71875 -0.875 5.65625 -0.8125 C 5.09375 -0.175781 4.40625 0.140625 3.59375 0.140625 C 2.757812 0.140625 2.066406 -0.175781 1.515625 -0.8125 C 0.960938 -1.414062 0.6875 -2.132812 0.6875 -2.96875 C 0.6875 -3.789062 0.960938 -4.507812 1.515625 -5.125 C 2.066406 -5.75 2.757812 -6.0625 3.59375 -6.0625 C 4.382812 -6.0625 5.070312 -5.75 5.65625 -5.125 C 5.71875 -5.0625 5.769531 -5 5.8125 -4.9375 L 5.8125 -5.9375 L 6.75 -5.9375 L 6.75 0.296875 C 6.75 1.140625 6.453125 1.863281 5.859375 2.46875 C 5.253906 3.070312 4.53125 3.375 3.6875 3.375 C 2.832031 3.375 2.109375 3.070312 1.515625 2.46875 C 1.035156 1.988281 0.742188 1.4375 0.640625 0.8125 Z M 1.609375 0.8125 "/></g></g></g><g fill="#0d0d0d" fill-opacity="1"><g transform="translate(175.380452, 191.624987)"><g><path d="M 5.734375 -2.96875 C 5.734375 -3.539062 5.535156 -4.046875 5.140625 -4.484375 C 4.734375 -4.910156 4.234375 -5.125 3.640625 -5.125 C 3.046875 -5.125 2.550781 -4.910156 2.15625 -4.484375 C 1.75 -4.046875 1.546875 -3.539062 1.546875 -2.96875 C 1.546875 -2.394531 1.75 -1.890625 2.15625 -1.453125 C 2.550781 -1.023438 3.046875 -0.8125 3.640625 -0.8125 C 4.234375 -0.8125 4.734375 -1.023438 5.140625 -1.453125 C 5.535156 -1.890625 5.734375 -2.394531 5.734375 -2.96875 Z M 6.671875 0 L 5.734375 0 L 5.734375 -1.015625 C 5.679688 -0.941406 5.625 -0.875 5.5625 -0.8125 C 5 -0.175781 4.3125 0.140625 3.5 0.140625 C 2.675781 0.140625 1.984375 -0.175781 1.421875 -0.8125 C 0.878906 -1.414062 0.609375 -2.132812 0.609375 -2.96875 C 0.609375 -3.789062 0.878906 -4.507812 1.421875 -5.125 C 1.984375 -5.75 2.675781 -6.0625 3.5 -6.0625 C 4.3125 -6.0625 5 -5.75 5.5625 -5.125 C 5.625 -5.0625 5.679688 -4.992188 5.734375 -4.921875 L 5.734375 -5.9375 L 6.671875 -5.9375 Z M 6.671875 0 "/></g></g></g><g fill="#0d0d0d" fill-opacity="1"><g transform="translate(183.062047, 191.624987)"><g><path d="M 0.265625 -5.0625 L 0.265625 -5.9375 L 1.75 -5.9375 L 1.75 -8.234375 L 2.703125 -8.234375 L 2.703125 -5.9375 L 4.171875 -5.9375 L 4.171875 -5.0625 L 2.703125 -5.0625 L 2.703125 0 L 1.75 0 L 1.75 -5.0625 Z M 0.265625 -5.0625 "/></g></g></g><g fill="#0d0d0d" fill-opacity="1"><g transform="translate(187.495808, 191.624987)"><g><path d="M 6.8125 -3.09375 L 6.8125 -2.609375 L 1.59375 -2.609375 C 1.675781 -2.085938 1.921875 -1.664062 2.328125 -1.34375 C 2.742188 -1.007812 3.203125 -0.84375 3.703125 -0.84375 C 4.046875 -0.84375 4.375 -0.925781 4.6875 -1.09375 C 5 -1.25 5.257812 -1.460938 5.46875 -1.734375 L 6.546875 -1.734375 C 6.285156 -1.171875 5.90625 -0.726562 5.40625 -0.40625 C 4.894531 -0.0703125 4.378906 0.09375 3.859375 0.09375 C 3.328125 0.09375 2.878906 0.015625 2.515625 -0.140625 C 2.128906 -0.304688 1.800781 -0.53125 1.53125 -0.8125 C 0.914062 -1.40625 0.609375 -2.132812 0.609375 -3 C 0.609375 -3.851562 0.914062 -4.582031 1.53125 -5.1875 C 2.125 -5.789062 2.847656 -6.09375 3.703125 -6.09375 C 4.535156 -6.09375 5.257812 -5.800781 5.875 -5.21875 C 6.5 -4.625 6.8125 -3.914062 6.8125 -3.09375 Z M 5.8125 -3.40625 C 5.707031 -3.914062 5.457031 -4.335938 5.0625 -4.671875 C 4.664062 -4.992188 4.210938 -5.15625 3.703125 -5.15625 C 2.929688 -5.15625 2.328125 -4.804688 1.890625 -4.109375 C 1.753906 -3.898438 1.660156 -3.664062 1.609375 -3.40625 Z M 5.8125 -3.40625 "/></g></g></g><g fill="#0d0d0d" fill-opacity="1"><g transform="translate(194.8405, 191.624987)"><g><path d="M 1.796875 0.140625 C 1.585938 0.140625 1.40625 0.0625 1.25 -0.09375 C 1.09375 -0.238281 1.015625 -0.414062 1.015625 -0.625 C 1.015625 -0.832031 1.085938 -1.007812 1.234375 -1.15625 C 1.390625 -1.3125 1.578125 -1.390625 1.796875 -1.390625 C 2.003906 -1.390625 2.191406 -1.316406 2.359375 -1.171875 C 2.515625 -1.015625 2.59375 -0.835938 2.59375 -0.640625 C 2.59375 -0.421875 2.507812 -0.238281 2.34375 -0.09375 C 2.1875 0.0625 2.003906 0.140625 1.796875 0.140625 Z M 1.796875 0.140625 "/></g></g></g><g fill="#0d0d0d" fill-opacity="1"><g transform="translate(198.438728, 191.624987)"><g/></g></g><g fill="#0d0d0d" fill-opacity="1"><g transform="translate(202.077377, 191.624987)"><g><path d="M 8.125 -4.578125 C 8.125 -3.921875 8.003906 -3.3125 7.765625 -2.75 C 7.515625 -2.1875 7.175781 -1.703125 6.75 -1.296875 C 6.332031 -0.890625 5.835938 -0.570312 5.265625 -0.34375 C 4.679688 -0.113281 4.0625 0 3.40625 0 L 1.015625 0 L 1.015625 -9.171875 L 3.40625 -9.171875 C 4.0625 -9.171875 4.679688 -9.054688 5.265625 -8.828125 C 5.835938 -8.597656 6.332031 -8.28125 6.75 -7.875 C 7.175781 -7.46875 7.515625 -6.988281 7.765625 -6.4375 C 8.003906 -5.863281 8.125 -5.242188 8.125 -4.578125 Z M 7.21875 -4.578125 C 7.21875 -5.628906 6.847656 -6.503906 6.109375 -7.203125 C 5.390625 -7.878906 4.5 -8.21875 3.4375 -8.21875 L 1.953125 -8.21875 L 1.953125 -0.9375 L 3.4375 -0.9375 C 4.5 -0.9375 5.390625 -1.28125 6.109375 -1.96875 C 6.847656 -2.664062 7.21875 -3.535156 7.21875 -4.578125 Z M 7.21875 -4.578125 "/></g></g></g><g fill="#0d0d0d" fill-opacity="1"><g transform="translate(210.810145, 191.624987)"><g><path d="M 6.8125 -3.09375 L 6.8125 -2.609375 L 1.59375 -2.609375 C 1.675781 -2.085938 1.921875 -1.664062 2.328125 -1.34375 C 2.742188 -1.007812 3.203125 -0.84375 3.703125 -0.84375 C 4.046875 -0.84375 4.375 -0.925781 4.6875 -1.09375 C 5 -1.25 5.257812 -1.460938 5.46875 -1.734375 L 6.546875 -1.734375 C 6.285156 -1.171875 5.90625 -0.726562 5.40625 -0.40625 C 4.894531 -0.0703125 4.378906 0.09375 3.859375 0.09375 C 3.328125 0.09375 2.878906 0.015625 2.515625 -0.140625 C 2.128906 -0.304688 1.800781 -0.53125 1.53125 -0.8125 C 0.914062 -1.40625 0.609375 -2.132812 0.609375 -3 C 0.609375 -3.851562 0.914062 -4.582031 1.53125 -5.1875 C 2.125 -5.789062 2.847656 -6.09375 3.703125 -6.09375 C 4.535156 -6.09375 5.257812 -5.800781 5.875 -5.21875 C 6.5 -4.625 6.8125 -3.914062 6.8125 -3.09375 Z M 5.8125 -3.40625 C 5.707031 -3.914062 5.457031 -4.335938 5.0625 -4.671875 C 4.664062 -4.992188 4.210938 -5.15625 3.703125 -5.15625 C 2.929688 -5.15625 2.328125 -4.804688 1.890625 -4.109375 C 1.753906 -3.898438 1.660156 -3.664062 1.609375 -3.40625 Z M 5.8125 -3.40625 "/></g></g></g><g fill="#0d0d0d" fill-opacity="1"><g transform="translate(218.154837, 191.624987)"><g><path d="M 1.953125 0 L 1.015625 0 L 1.015625 -10.109375 L 1.953125 -10.109375 Z M 1.953125 0 "/></g></g></g><g fill="#0d0d0d" fill-opacity="1"><g transform="translate(221.119669, 191.624987)"><g><path d="M 1.96875 -7.984375 C 2.082031 -7.867188 2.140625 -7.726562 2.140625 -7.5625 C 2.140625 -7.394531 2.082031 -7.253906 1.96875 -7.140625 C 1.851562 -7.015625 1.710938 -6.953125 1.546875 -6.953125 C 1.378906 -6.953125 1.238281 -7.015625 1.125 -7.140625 C 1 -7.253906 0.9375 -7.394531 0.9375 -7.5625 C 0.9375 -7.726562 1 -7.867188 1.125 -7.984375 C 1.238281 -8.097656 1.378906 -8.15625 1.546875 -8.15625 C 1.710938 -8.15625 1.851562 -8.097656 1.96875 -7.984375 Z M 2.015625 0 L 1.078125 0 L 1.078125 -5.9375 L 2.015625 -5.9375 Z M 2.015625 0 "/></g></g></g><g fill="#0d0d0d" fill-opacity="1"><g transform="translate(224.205785, 191.624987)"><g><path d="M 2.875 0.5625 L 0.140625 -5.9375 L 1.15625 -5.9375 L 2.875 -1.53125 L 4.578125 -5.9375 L 5.59375 -5.9375 Z M 2.875 0.5625 "/></g></g></g><g fill="#0d0d0d" fill-opacity="1"><g transform="translate(229.93329, 191.624987)"><g><path d="M 6.8125 -3.09375 L 6.8125 -2.609375 L 1.59375 -2.609375 C 1.675781 -2.085938 1.921875 -1.664062 2.328125 -1.34375 C 2.742188 -1.007812 3.203125 -0.84375 3.703125 -0.84375 C 4.046875 -0.84375 4.375 -0.925781 4.6875 -1.09375 C 5 -1.25 5.257812 -1.460938 5.46875 -1.734375 L 6.546875 -1.734375 C 6.285156 -1.171875 5.90625 -0.726562 5.40625 -0.40625 C 4.894531 -0.0703125 4.378906 0.09375 3.859375 0.09375 C 3.328125 0.09375 2.878906 0.015625 2.515625 -0.140625 C 2.128906 -0.304688 1.800781 -0.53125 1.53125 -0.8125 C 0.914062 -1.40625 0.609375 -2.132812 0.609375 -3 C 0.609375 -3.851562 0.914062 -4.582031 1.53125 -5.1875 C 2.125 -5.789062 2.847656 -6.09375 3.703125 -6.09375 C 4.535156 -6.09375 5.257812 -5.800781 5.875 -5.21875 C 6.5 -4.625 6.8125 -3.914062 6.8125 -3.09375 Z M 5.8125 -3.40625 C 5.707031 -3.914062 5.457031 -4.335938 5.0625 -4.671875 C 4.664062 -4.992188 4.210938 -5.15625 3.703125 -5.15625 C 2.929688 -5.15625 2.328125 -4.804688 1.890625 -4.109375 C 1.753906 -3.898438 1.660156 -3.664062 1.609375 -3.40625 Z M 5.8125 -3.40625 "/></g></g></g><g fill="#0d0d0d" fill-opacity="1"><g transform="translate(237.277982, 191.624987)"><g><path d="M 4.0625 -4.703125 C 3.84375 -4.898438 3.609375 -5 3.359375 -5 C 3.117188 -5 2.910156 -4.929688 2.734375 -4.796875 C 2.554688 -4.648438 2.410156 -4.476562 2.296875 -4.28125 C 2.066406 -3.882812 1.953125 -3.445312 1.953125 -2.96875 L 1.953125 0 L 1.015625 0 L 1.015625 -5.9375 L 1.953125 -5.9375 L 1.953125 -4.703125 L 2 -4.953125 C 2.3125 -5.679688 2.800781 -6.046875 3.46875 -6.046875 C 3.675781 -6.046875 3.875 -6.007812 4.0625 -5.9375 Z M 4.0625 -4.703125 "/></g></g></g><g fill="#0d0d0d" fill-opacity="1"><g transform="translate(241.469174, 191.624987)"><g><path d="M 1.796875 0.140625 C 1.585938 0.140625 1.40625 0.0625 1.25 -0.09375 C 1.09375 -0.238281 1.015625 -0.414062 1.015625 -0.625 C 1.015625 -0.832031 1.085938 -1.007812 1.234375 -1.15625 C 1.390625 -1.3125 1.578125 -1.390625 1.796875 -1.390625 C 2.003906 -1.390625 2.191406 -1.316406 2.359375 -1.171875 C 2.515625 -1.015625 2.59375 -0.835938 2.59375 -0.640625 C 2.59375 -0.421875 2.507812 -0.238281 2.34375 -0.09375 C 2.1875 0.0625 2.003906 0.140625 1.796875 0.140625 Z M 1.796875 0.140625 "/></g></g></g><g fill="#0d0d0d" fill-opacity="1"><g transform="translate(245.067402, 191.624987)"><g/></g></g><g fill="#0d0d0d" fill-opacity="1"><g transform="translate(248.706051, 191.624987)"><g><path d="M 7.640625 -3.03125 C 7.640625 -2.039062 7.316406 -1.257812 6.671875 -0.6875 C 6.066406 -0.144531 5.253906 0.125 4.234375 0.125 C 3.210938 0.125 2.394531 -0.144531 1.78125 -0.6875 C 1.132812 -1.257812 0.8125 -2.039062 0.8125 -3.03125 L 0.8125 -9.171875 L 1.75 -9.171875 L 1.75 -2.90625 C 1.75 -2.207031 2.003906 -1.675781 2.515625 -1.3125 C 2.941406 -0.988281 3.515625 -0.828125 4.234375 -0.828125 C 5.359375 -0.828125 6.113281 -1.203125 6.5 -1.953125 C 6.632812 -2.210938 6.703125 -2.53125 6.703125 -2.90625 L 6.703125 -9.171875 L 7.640625 -9.171875 Z M 7.640625 -3.03125 "/></g></g></g><g fill="#0d0d0d" fill-opacity="1"><g transform="translate(257.155807, 191.624987)"><g><path d="M 1.953125 3.375 L 1.015625 3.375 L 1.015625 -5.9375 L 1.953125 -5.9375 L 1.953125 -4.921875 C 2.003906 -4.992188 2.0625 -5.0625 2.125 -5.125 C 2.6875 -5.75 3.375 -6.0625 4.1875 -6.0625 C 5.007812 -6.0625 5.703125 -5.75 6.265625 -5.125 C 6.804688 -4.507812 7.078125 -3.789062 7.078125 -2.96875 C 7.078125 -2.132812 6.804688 -1.414062 6.265625 -0.8125 C 5.703125 -0.175781 5.007812 0.140625 4.1875 0.140625 C 3.375 0.140625 2.6875 -0.175781 2.125 -0.8125 C 2.0625 -0.875 2.003906 -0.941406 1.953125 -1.015625 Z M 6.140625 -2.96875 C 6.140625 -3.539062 5.941406 -4.046875 5.546875 -4.484375 C 5.140625 -4.910156 4.640625 -5.125 4.046875 -5.125 C 3.453125 -5.125 2.957031 -4.910156 2.5625 -4.484375 C 2.15625 -4.046875 1.953125 -3.539062 1.953125 -2.96875 C 1.953125 -2.394531 2.15625 -1.890625 2.5625 -1.453125 C 2.957031 -1.023438 3.453125 -0.8125 4.046875 -0.8125 C 4.640625 -0.8125 5.140625 -1.023438 5.546875 -1.453125 C 5.941406 -1.890625 6.140625 -2.394531 6.140625 -2.96875 Z M 6.140625 -2.96875 "/></g></g></g><g fill="#0d0d0d" fill-opacity="1"><g transform="translate(264.837401, 191.624987)"><g><path d="M 5.8125 -2.96875 C 5.8125 -3.539062 5.613281 -4.046875 5.21875 -4.484375 C 4.8125 -4.910156 4.3125 -5.125 3.71875 -5.125 C 3.144531 -5.125 2.648438 -4.910156 2.234375 -4.484375 C 1.828125 -4.054688 1.625 -3.550781 1.625 -2.96875 C 1.625 -2.382812 1.828125 -1.878906 2.234375 -1.453125 C 2.648438 -1.023438 3.144531 -0.8125 3.71875 -0.8125 C 4.3125 -0.8125 4.8125 -1.023438 5.21875 -1.453125 C 5.613281 -1.890625 5.8125 -2.394531 5.8125 -2.96875 Z M 1.609375 0.8125 C 1.691406 1.175781 1.882812 1.503906 2.1875 1.796875 C 2.601562 2.210938 3.101562 2.421875 3.6875 2.421875 C 4.269531 2.421875 4.769531 2.210938 5.1875 1.796875 C 5.601562 1.378906 5.8125 0.878906 5.8125 0.296875 L 5.8125 -1 C 5.769531 -0.9375 5.71875 -0.875 5.65625 -0.8125 C 5.09375 -0.175781 4.40625 0.140625 3.59375 0.140625 C 2.757812 0.140625 2.066406 -0.175781 1.515625 -0.8125 C 0.960938 -1.414062 0.6875 -2.132812 0.6875 -2.96875 C 0.6875 -3.789062 0.960938 -4.507812 1.515625 -5.125 C 2.066406 -5.75 2.757812 -6.0625 3.59375 -6.0625 C 4.382812 -6.0625 5.070312 -5.75 5.65625 -5.125 C 5.71875 -5.0625 5.769531 -5 5.8125 -4.9375 L 5.8125 -5.9375 L 6.75 -5.9375 L 6.75 0.296875 C 6.75 1.140625 6.453125 1.863281 5.859375 2.46875 C 5.253906 3.070312 4.53125 3.375 3.6875 3.375 C 2.832031 3.375 2.109375 3.070312 1.515625 2.46875 C 1.035156 1.988281 0.742188 1.4375 0.640625 0.8125 Z M 1.609375 0.8125 "/></g></g></g><g fill="#0d0d0d" fill-opacity="1"><g transform="translate(272.59986, 191.624987)"><g><path d="M 4.0625 -4.703125 C 3.84375 -4.898438 3.609375 -5 3.359375 -5 C 3.117188 -5 2.910156 -4.929688 2.734375 -4.796875 C 2.554688 -4.648438 2.410156 -4.476562 2.296875 -4.28125 C 2.066406 -3.882812 1.953125 -3.445312 1.953125 -2.96875 L 1.953125 0 L 1.015625 0 L 1.015625 -5.9375 L 1.953125 -5.9375 L 1.953125 -4.703125 L 2 -4.953125 C 2.3125 -5.679688 2.800781 -6.046875 3.46875 -6.046875 C 3.675781 -6.046875 3.875 -6.007812 4.0625 -5.9375 Z M 4.0625 -4.703125 "/></g></g></g><g fill="#0d0d0d" fill-opacity="1"><g transform="translate(276.791052, 191.624987)"><g><path d="M 5.734375 -2.96875 C 5.734375 -3.539062 5.535156 -4.046875 5.140625 -4.484375 C 4.734375 -4.910156 4.234375 -5.125 3.640625 -5.125 C 3.046875 -5.125 2.550781 -4.910156 2.15625 -4.484375 C 1.75 -4.046875 1.546875 -3.539062 1.546875 -2.96875 C 1.546875 -2.394531 1.75 -1.890625 2.15625 -1.453125 C 2.550781 -1.023438 3.046875 -0.8125 3.640625 -0.8125 C 4.234375 -0.8125 4.734375 -1.023438 5.140625 -1.453125 C 5.535156 -1.890625 5.734375 -2.394531 5.734375 -2.96875 Z M 6.671875 0 L 5.734375 0 L 5.734375 -1.015625 C 5.679688 -0.941406 5.625 -0.875 5.5625 -0.8125 C 5 -0.175781 4.3125 0.140625 3.5 0.140625 C 2.675781 0.140625 1.984375 -0.175781 1.421875 -0.8125 C 0.878906 -1.414062 0.609375 -2.132812 0.609375 -2.96875 C 0.609375 -3.789062 0.878906 -4.507812 1.421875 -5.125 C 1.984375 -5.75 2.675781 -6.0625 3.5 -6.0625 C 4.3125 -6.0625 5 -5.75 5.5625 -5.125 C 5.625 -5.0625 5.679688 -4.992188 5.734375 -4.921875 L 5.734375 -5.9375 L 6.671875 -5.9375 Z M 6.671875 0 "/></g></g></g><g fill="#0d0d0d" fill-opacity="1"><g transform="translate(284.472646, 191.624987)"><g><path d="M 5.734375 -2.96875 C 5.734375 -3.539062 5.535156 -4.046875 5.140625 -4.484375 C 4.734375 -4.910156 4.234375 -5.125 3.640625 -5.125 C 3.046875 -5.125 2.550781 -4.910156 2.15625 -4.484375 C 1.75 -4.046875 1.546875 -3.539062 1.546875 -2.96875 C 1.546875 -2.394531 1.75 -1.890625 2.15625 -1.453125 C 2.550781 -1.023438 3.046875 -0.8125 3.640625 -0.8125 C 4.234375 -0.8125 4.734375 -1.023438 5.140625 -1.453125 C 5.535156 -1.890625 5.734375 -2.394531 5.734375 -2.96875 Z M 6.671875 0 L 5.734375 0 L 5.734375 -1.015625 C 5.679688 -0.941406 5.625 -0.875 5.5625 -0.8125 C 5 -0.175781 4.3125 0.140625 3.5 0.140625 C 2.675781 0.140625 1.984375 -0.175781 1.421875 -0.8125 C 0.878906 -1.414062 0.609375 -2.132812 0.609375 -2.96875 C 0.609375 -3.789062 0.878906 -4.507812 1.421875 -5.125 C 1.984375 -5.75 2.675781 -6.0625 3.5 -6.0625 C 4.3125 -6.0625 5 -5.75 5.5625 -5.125 C 5.625 -5.0625 5.679688 -4.992188 5.734375 -4.921875 L 5.734375 -10.109375 L 6.671875 -10.109375 Z M 6.671875 0 "/></g></g></g><g fill="#0d0d0d" fill-opacity="1"><g transform="translate(292.154241, 191.624987)"><g><path d="M 6.8125 -3.09375 L 6.8125 -2.609375 L 1.59375 -2.609375 C 1.675781 -2.085938 1.921875 -1.664062 2.328125 -1.34375 C 2.742188 -1.007812 3.203125 -0.84375 3.703125 -0.84375 C 4.046875 -0.84375 4.375 -0.925781 4.6875 -1.09375 C 5 -1.25 5.257812 -1.460938 5.46875 -1.734375 L 6.546875 -1.734375 C 6.285156 -1.171875 5.90625 -0.726562 5.40625 -0.40625 C 4.894531 -0.0703125 4.378906 0.09375 3.859375 0.09375 C 3.328125 0.09375 2.878906 0.015625 2.515625 -0.140625 C 2.128906 -0.304688 1.800781 -0.53125 1.53125 -0.8125 C 0.914062 -1.40625 0.609375 -2.132812 0.609375 -3 C 0.609375 -3.851562 0.914062 -4.582031 1.53125 -5.1875 C 2.125 -5.789062 2.847656 -6.09375 3.703125 -6.09375 C 4.535156 -6.09375 5.257812 -5.800781 5.875 -5.21875 C 6.5 -4.625 6.8125 -3.914062 6.8125 -3.09375 Z M 5.8125 -3.40625 C 5.707031 -3.914062 5.457031 -4.335938 5.0625 -4.671875 C 4.664062 -4.992188 4.210938 -5.15625 3.703125 -5.15625 C 2.929688 -5.15625 2.328125 -4.804688 1.890625 -4.109375 C 1.753906 -3.898438 1.660156 -3.664062 1.609375 -3.40625 Z M 5.8125 -3.40625 "/></g></g></g></svg>